<?xml version="1.0" encoding="utf-8"?>
<!-- Generator: Adobe Illustrator 25.2.1, SVG Export Plug-In . SVG Version: 6.00 Build 0)  -->
<svg version="1.1" id="Layer_1" xmlns="http://www.w3.org/2000/svg" xmlns:xlink="http://www.w3.org/1999/xlink" x="0px" y="0px"
	 viewBox="0 0 212.3 71" style="enable-background:new 0 0 212.3 71;" xml:space="preserve">
<style type="text/css">
	.st0{fill:#FFFFFF;}
</style>
<g id="logo">
	<path id="blue" class="st0" d="M25.9,33.7c0,0,0.3-0.2,0.4,0.5c0,0.6-1.2,4.3-1.5,6.5c-0.3,2.1-2.1,9.5-2.3,17.4
		c-0.1,7.9,1.2,13,1.2,13C15.6,57.2,25.9,33.7,25.9,33.7 M29.6,53.5c1-0.7,7.6-2.5,10.6-7.7L29.6,53.5 M39,21.8
		C39,21.8,13.6,3.7,0,3c0,0,0.7,1.6,2.4,3.9C4.8,10.1,13.7,20.8,27,33.6c0,0,3.8,2.4-0.6-2.2C22,26.9,7.5,10.6,6.6,9.1
		C5.7,7.7,3.8,6,8.1,7C13.3,8.2,34.7,20.2,36,20.8C38.6,22.1,39,21.8,39,21.8 M23.6,10.2c1,2.1,1.5,1.7-0.3-3.5
		c-1.4-4.3,1.1-2.8,1.9-2.3c0.7,0.4,10.2,8.2,10.2,8.2c1.1,1.2,6.3,5.4,1-0.5c-5.3-6-14.2-13.2-15.9-12
		C19.8,0.7,23.6,10.2,23.6,10.2 M37.2,18.7c0,0,4.8-6.4,9.8-8c7-2.3,10.9,3.2,10.7,2.7C55.4,8.7,50.4,8,47.3,8.6
		C42.3,9.7,37.2,18.7,37.2,18.7 M52.4,13c-0.1-0.6-0.8-0.9-1.5-0.7c-0.7,0.1-1.2,0.7-1.1,1.3c0.1,0.6,0.8,0.9,1.5,0.7
		C52,14.1,52.5,13.5,52.4,13 M49.2,29.3c0,0-0.2,2.3,0.7,0.1c0.3-0.7,2.6-6.5,4.5-9.4c1-1.6,1.3-2.2,2.9-2.4
		c2.3-0.4,15.9,1.5,19.5,1.8C77.7,19.5,77,19,77,19l-16.9-3.3c-1.6-0.2-2.5-0.3-3.5-0.2C55.6,15.5,53.3,18.5,49.2,29.3"/>
	<path id="red" class="st0" d="M56.1,15.6c0,0-2.4-0.1-4.5-0.3s-5,2.5-7.2,5.6c-1.5,2.1-2.5,4.7-2.5,4.7s3.5-1.6,5.5-2.1
		s2.6-0.6,4.5-0.9c0,0,0.7-1.4,2.1-3.9C55.3,16.3,56.1,15.6,56.1,15.6"/>
	<path id="white" class="st0" d="M51.6,13c0,0.2-0.1,0.4-0.3,0.4s-0.4-0.1-0.4-0.3s0.1-0.4,0.3-0.4C51.4,12.7,51.6,12.8,51.6,13"/>
</g>
<g id="text">
	<path id="american" class="st0" d="M48.9,32.7h3l6,15.2h-3.1l-1.2-3.1h-6.4l-1.3,3.1h-3.1L48.9,32.7z M50.4,36.7L48.3,42h4.2
		L50.4,36.7z M59.3,47.9h2.9l1.8-9.6l3.3,9.6h2.6l3.4-9.6l1.7,9.6h2.9l-2.6-15.2h-2.9l-3.7,10.6L65,32.8h-2.9L59.3,47.9z M80.5,48
		h8.6v-2.8h-5.6v-4h5.6v-2.8h-5.6v-2.8h5.6v-2.8h-8.6V48z M92.4,32.8h3.2c1.7,0,3,0.2,3.7,0.5s1.3,0.8,1.8,1.5
		c0.4,0.7,0.7,1.5,0.7,2.5s-0.3,1.8-0.8,2.5s-1.2,1.2-2.2,1.5l3.7,6.8h-3.2l-3.5-6.4h-0.3v6.4h-3L92.4,32.8 M95.3,38.8h0.9
		c1,0,1.6-0.1,2-0.4c0.4-0.2,0.5-0.6,0.6-1.2c0-0.3-0.1-0.6-0.3-0.9c-0.2-0.2-0.4-0.4-0.7-0.5c-0.3-0.1-0.9-0.2-1.7-0.2h-0.8V38.8z
		 M104.8,48.1h3l0.1-15.2h-3L104.8,48.1z M125.9,35.6c-0.9-1-1.9-1.7-3.1-2.3c-1.2-0.5-2.5-0.8-3.8-0.8c-1.5,0-3,0.3-4.3,1.1
		c-1.3,0.7-2.3,1.7-3.1,2.8c-0.7,1.2-1.1,2.5-1.1,4c0,2.3,0.8,4.3,2.3,5.8c1.6,1.5,3.6,2.3,6,2.3c1.3,0,2.5-0.2,3.5-0.6
		c1-0.4,2.1-1.2,3.3-2.3l-2-2.1c-0.9,0.8-1.7,1.4-2.4,1.7c-0.7,0.3-1.5,0.5-2.4,0.5c-1,0-1.9-0.2-2.8-0.7c-0.8-0.5-1.5-1.1-1.9-1.9
		c-0.5-0.8-0.7-1.7-0.7-2.7c0-1.5,0.5-2.7,1.6-3.7c1-1,2.3-1.5,3.8-1.5c1.8,0,3.4,0.7,4.8,2.2L125.9,35.6 M133.2,33h3l6,15.2h-3.1
		l-1.2-3.1h-6.4l-1.3,3.1h-3.1L133.2,33z M134.7,37l-2.1,5.2h4.2L134.7,37z M144.8,48.2h3v-10l6.7,10h2.9l0.1-15.2h-3v10l-6.7-10
		h-2.9L144.8,48.2z"/>
	<path id="bird" class="st0" d="M167.5,48.3l0.1-15.2h2.5c1.4,0,2.5,0.1,3.1,0.3c0.9,0.2,1.7,0.7,2.2,1.3c0.6,0.7,0.8,1.4,0.8,2.3
		c0,0.6-0.1,1.1-0.4,1.6c-0.3,0.5-0.7,0.9-1.2,1.3c1,0.4,1.7,1,2.1,1.6c0.4,0.7,0.7,1.4,0.7,2.3c0,0.9-0.2,1.6-0.7,2.3
		s-1.1,1.2-1.8,1.6c-0.7,0.3-1.7,0.5-3,0.5L167.5,48.3 M170.5,41.6v3.9h0.8c1.2,0,2.1-0.1,2.5-0.4c0.4-0.3,0.7-0.7,0.7-1.3
		c0-0.7-0.3-1.2-0.8-1.6c-0.5-0.4-1.4-0.6-2.5-0.6L170.5,41.6z M170.6,35.9v3.2h0.7c0.7,0,1.3-0.1,1.6-0.4c0.4-0.3,0.5-0.7,0.5-1.2
		s-0.2-0.8-0.5-1.1s-0.8-0.4-1.5-0.4L170.6,35.9z M180.3,48.3h3l0.1-15.2h-3L180.3,48.3z M187.1,33.2h3.2c1.7,0,3,0.2,3.7,0.5
		s1.3,0.8,1.8,1.5c0.4,0.7,0.7,1.5,0.7,2.5s-0.3,1.8-0.8,2.5s-1.2,1.2-2.2,1.5l3.7,6.8H194l-3.5-6.4h-0.3v6.4h-3L187.1,33.2
		 M190.1,39.1h0.9c1,0,1.6-0.1,2-0.4c0.4-0.2,0.5-0.6,0.5-1.2c0-0.3-0.1-0.6-0.3-0.9c-0.2-0.2-0.4-0.4-0.7-0.5s-0.9-0.2-1.7-0.2H190
		L190.1,39.1z M199.9,33.2h3.6c2.3,0,4,0.3,5.1,0.8c1.1,0.6,2,1.4,2.7,2.7c0.7,1.2,1.1,2.7,1.1,4.3c0,1.2-0.2,2.2-0.6,3.2
		c-0.4,1-1,1.8-1.7,2.4c-0.7,0.6-1.5,1.1-2.3,1.3s-2.3,0.4-4.3,0.4h-3.6V33.2 M202.8,36v9.5h1.4c1.4,0,2.4-0.1,3-0.4
		c0.6-0.3,1.1-0.8,1.5-1.5s0.6-1.6,0.6-2.6c0-1.6-0.5-2.9-1.4-3.7c-0.8-0.8-2.2-1.2-4-1.2L202.8,36z"/>
	<path id="conservancy" class="st0" d="M58.5,56.6l-2.1,1.9c-1.4-1.5-3-2.2-4.8-2.2c-1.5,0-2.8,0.5-3.8,1.5s-1.6,2.2-1.6,3.7
		c0,1,0.2,1.9,0.7,2.7c0.5,0.8,1.1,1.4,1.9,1.9c0.8,0.5,1.8,0.7,2.8,0.7c0.9,0,1.7-0.2,2.4-0.5s1.5-0.9,2.4-1.7l2,2.1
		c-1.2,1.1-2.3,1.8-3.3,2.3c-1,0.4-2.2,0.6-3.5,0.6c-2.5,0-4.5-0.8-6-2.3c-1.6-1.5-2.3-3.4-2.3-5.8c0-1.5,0.4-2.9,1.1-4
		c0.7-1.2,1.7-2.1,3.1-2.8c1.3-0.7,2.8-1.1,4.3-1.1c1.3,0,2.6,0.3,3.8,0.8C56.6,54.8,57.6,55.6,58.5,56.6 M68.5,53.5
		c-1.5,0-2.8,0.3-4.1,1.1c-1.3,0.7-2.3,1.7-3,2.9s-1.1,2.5-1.1,4c0,2.2,0.8,4,2.3,5.6c1.6,1.6,3.5,2.4,5.9,2.4
		c2.3,0,4.2-0.8,5.8-2.3c1.6-1.5,2.4-3.4,2.4-5.6c0-2.2-0.8-4.1-2.4-5.7C72.6,54.3,70.7,53.5,68.5,53.5 M68.4,56.3
		c1.4,0,2.7,0.5,3.7,1.5s1.5,2.2,1.5,3.7s-0.5,2.7-1.5,3.7s-2.2,1.5-3.6,1.5c-1.3,0-2.4-0.4-3.3-1.2c-1.2-1-1.9-2.3-1.9-4
		c0-1.5,0.5-2.8,1.5-3.7C65.7,56.8,67,56.3,68.4,56.3 M80,69.1h3v-10l6.7,10h2.9V54h-3v10l-6.7-10H80V69.1z M105.4,56
		c-0.8-0.9-1.6-1.6-2.3-1.9c-0.7-0.4-1.5-0.5-2.2-0.5c-1.2,0-2.2,0.4-3.1,1.1c-0.8,0.7-1.2,1.7-1.3,2.7c0,0.7,0.2,1.5,0.7,2.2
		s1.6,1.8,3.3,3.1c0.9,0.7,1.5,1.2,1.7,1.6c0.3,0.3,0.4,0.7,0.4,1c0,0.4-0.2,0.7-0.5,1c-0.4,0.3-0.8,0.4-1.3,0.4c-1,0-1.8-0.7-2.6-2
		l-2.5,1.5c0.6,1.1,1.3,2,2.1,2.5c0.8,0.5,1.8,0.8,2.9,0.8c1.4,0,2.6-0.4,3.5-1.2c0.9-0.8,1.3-1.8,1.3-3.1c0-0.6-0.1-1.2-0.4-1.8
		c-0.2-0.5-0.7-1.1-1.3-1.7c-0.2-0.2-0.9-0.8-2.1-1.7c-1.2-1-1.9-1.6-2.2-2c-0.2-0.2-0.3-0.5-0.3-0.7c0-0.3,0.1-0.5,0.4-0.7
		c0.2-0.2,0.6-0.3,1-0.3c0.8,0,1.6,0.5,2.4,1.6L105.4,56 M109.5,69.2h8.6v-2.8h-5.6v-4h5.6v-2.8h-5.6v-2.8h5.6V54h-8.6V69.2z
		 M123.2,54.1l-0.1,15.2h3v-6.4h0.3l3.5,6.4h3.2l-3.7-6.8c1-0.3,1.7-0.8,2.2-1.5s0.7-1.5,0.7-2.5s-0.2-1.8-0.7-2.5
		c-0.4-0.7-1-1.2-1.8-1.5c-0.7-0.3-2-0.5-3.7-0.5L123.2,54.1 M126.2,56.9h0.8c0.8,0,1.4,0.1,1.7,0.2c0.3,0.1,0.5,0.3,0.7,0.5
		s0.3,0.5,0.3,0.9c0,0.6-0.2,1-0.5,1.2c-0.4,0.2-1,0.4-2,0.4h-0.9L126.2,56.9z M139.9,69.3h2.9l5.8-15.2h-3.1l-4.1,10.8l-3.9-10.8
		h-3.1L139.9,69.3z M147.7,69.4h3.1l1.3-3.1h6.4l1.2,3.1h3.1l-6-15.2h-3L147.7,69.4z M157.4,63.5h-4.2l2.1-5.2L157.4,63.5z
		 M165.9,69.4h3v-10l6.7,10h2.9l0.1-15.2h-3v10l-6.7-10H166L165.9,69.4z M197.2,57c-0.9-1-1.9-1.7-3.1-2.3c-1.2-0.5-2.5-0.8-3.8-0.8
		c-1.5,0-3,0.3-4.3,1.1c-1.3,0.7-2.3,1.7-3.1,2.8c-0.7,1.2-1.1,2.5-1.1,4c0,2.3,0.8,4.3,2.3,5.8c1.6,1.5,3.6,2.3,6,2.3
		c1.3,0,2.5-0.2,3.5-0.6s2.1-1.2,3.3-2.3l-2-2.1c-0.9,0.8-1.7,1.4-2.4,1.7c-0.7,0.3-1.5,0.5-2.4,0.5c-1,0-1.9-0.2-2.8-0.7
		c-0.8-0.4-1.5-1.1-1.9-1.9c-0.5-0.8-0.7-1.7-0.7-2.7c0-1.5,0.5-2.7,1.6-3.7c1-1,2.3-1.5,3.8-1.5c1.8,0,3.4,0.7,4.8,2.2L197.2,57
		 M203.6,63v6.6h3V63l4.7-8.6h-3.2l-2.9,5.4l-2.9-5.4h-3.2L203.6,63z"/>
</g>
</svg>
