<?xml version="1.0" encoding="utf-8"?>
<!-- Generator: Adobe Illustrator 25.2.1, SVG Export Plug-In . SVG Version: 6.00 Build 0)  -->
<svg version="1.1" id="layer" xmlns="http://www.w3.org/2000/svg" xmlns:xlink="http://www.w3.org/1999/xlink" x="0px" y="0px"
	 viewBox="0 0 652 504.4" style="enable-background:new 0 0 652 504.4;" xml:space="preserve">
<style type="text/css">
	.st0{fill:#D70A2A;}
	.st1{fill:#FFFFFF;}
	.st2{fill:none;stroke:#FFFFFF;stroke-width:1.225;stroke-miterlimit:10;}
	.st3{clip-path:url(#SVGID_2_);fill:url(#SVGID_3_);}
</style>
<g>
	<path class="st0" d="M549.5,229.3c0,124.2-100.7,224.8-224.8,224.8c-124.2,0-224.8-100.7-224.8-224.8S200.5,4.5,324.7,4.5
		S549.5,105.2,549.5,229.3"/>
	<path d="M120,357.9c1.6-4.1,42.1,1.8,42.1,1.8s-19.5,32.2-23.6,35.2c-4.1,3.1-5.1,5.5-3.4,9.8c1.6,4.3-0.4,14.9-3.9,23.4
		c-3.5,8.6-13.6,33.6-13.6,42.8c0,9.2,1.6,14.5,3.1,15.3c1.4,0.8,5.3,6.7-0.6,11.2H84.9c0,0-2.7-4.1,0-8.6c2.6-4.5,8.6-4.7,10.2-4.7
		c1.6,0,8-12.8,8.8-16.3c0.8-3.4,1-5.5,0-7.5c-1-2.1-0.6-12.6,4.1-17.5c4.7-4.9,9.4-37.1,8.7-43.8c-0.6-6.7-4.3-8.1-2.4-14.5
		C115.9,378.2,118.4,361.9,120,357.9 M252.2,383.9c-1.2,0.8-0.2,4.7-0.2,4.7c2,49.3,12,64.3,14.9,70.4c2.8,6.1,3.1,8.6,0,12.8
		c-3.1,4.3-4.1,16.9-3.3,23.4c0.8,6.5-2,9.2-2,9.2h-34.3c-5.5-9.7,0.6-14.9,3.2-17.3c2.7-2.4-2.4-10.8-4.5-13
		c-2-2.2-1.4-8.3-1.4-8.3c-0.6-28.7-4.7-38.9-6.7-45.6c-2.1-6.7-6.1-13.9-6.3-16.3c-0.2-2.4,10.2-6.1,11.8-7.1
		c1.6-1-2.4-12.8-8.1-24.4s-7.1-23-7.1-23h72.7C275,369.3,253.4,383.1,252.2,383.9 M236.8,455.2c0.7,5.3,3.8,9,5.6,12.4
		c0,0-0.2-13.9-4.5-30.1c-4.3-16.3-6.7-21.4-6.7-21.4S236.1,449.9,236.8,455.2 M333.8,362.1c1.8-6.5,1.4-14.5,1.4-14.5l-36.8,1.6
		c0,0,5.5,5.3,2.2,36.7c-3.3,31.4-6.9,43-6.5,51.9c0.4,9-1.4,17.3-4.3,22.4c-2.8,5.1-2.8,7.1,0,8.5c2.9,1.4,5,8,4.8,12.6
		c-0.2,4.7-2.8,11.6,2.5,15.9c5.3,4.3,5.7,5.7,9.8,5.5s9.2-0.6,13.6,0c4.5,0.6,7.3,1,11.6,0s3.5-5.1,1-8.6s-4.1-7.9-7.3-7.9
		c-3.3,0-4.7,2.4-8.6-6.7c-3.9-9.2-7.3-23.2-5.9-28.9C312.8,445,332,368.7,333.8,362.1 M385.3,105.8c-8.8-3.7-23.6-12.8-23.6-12.8
		c6.1-23.2-31-38.9-31-38.9c1.2-3.5,12-29.1,1.2-29.1s-28,22-28,22h-4.2c0,0,0.6-1.2,3.5-14.9c2.8-13.6-3.5-14.7-3.5-14.7
		c-19.5-1.4-38.3,34.8-43.6,43.4c-5.3,8.6-7.9,26.3-11.8,33.6c-3.9,7.3-6.5,14.2-7.7,18.9c-1.2,4.7-7.7,17.9-13,25.9
		c-5.3,7.9-9.8,27.9-9.8,27.9c-7.2,9.9-12.1,27.9-12.1,27.9c-48.5-5.3-59.3,22-59.3,22c-52.5-0.4-58.2-14.7-68.8-27.3
		s-8.6-30.3-0.8-38.3c7.7-7.9,23.2-15.3,26.9-18.7c3.7-3.5-2.2-5.7-2.2-5.7c-17.7,0.2-33.8,16.9-38.5,22.6
		c-4.7,5.7-14.9,33.8,7.5,59.9s52.9,31.2,56.4,30.8c3.5-0.4,2.8,1,2.8,1c-4.3,5.1-9,21.8-9,21.8l250.4-3.1l-2.2-6.5
		c-2.2-6.5,0-7.5-6.9-39.3s-22-49.3-23-50.7s3.1-6.7,5.1-7.1c2-0.4,28.3-1.6,34.6-1.6s10.4-5.5,11.8-11c1.4-5.5,6.5-11.8,12.2-20.8
		C404.5,113.9,394.1,109.4,385.3,105.8"/>
	<polygon points="649.8,274.9 577.3,274.9 577.3,258.5 74.4,258.5 74.4,274.9 3.9,274.9 44.6,323.9 3.9,372.9 175.3,372.9 
		175.3,351.4 478.4,351.4 478.4,372.9 649.8,372.9 609.1,323.9 	"/>
	<path class="st1" d="M166,213.7c4.1,0,7.3,0.9,9.6,2.7l-3.4,4.6c-1.9-1.3-3.9-1.9-6-1.9c-2.8,0-4.9,1-6.4,2.9s-2.2,4.8-2.2,8.7
		c0,4.3,0.5,7.3,1.6,9c1.6,2.5,4,3.8,7.3,3.8c2.3,0,4.5-0.7,6.5-2.2l3.5,4.3c-2.9,2.1-6.4,3.1-10.5,3.1c-5.2,0-9.3-1.5-12.3-4.6
		c-3.2-3.1-4.8-7.1-4.8-12.1c0-4.1,0.8-7.6,2.6-10.5c1.4-2.5,3.5-4.4,6-5.7C160.1,214.3,163,213.7,166,213.7 M188,248.7v-15.3h9.9
		v15.3h7v-34.3h-7v13.3H188v-13.3h-6.9v34.3H188z M218,248.7l2.6-8.1h10.8l2.6,8.1h8l-11.6-34.4h-8l-12.1,34.4H218z M226.1,221.8
		c0.7,3.1,1.2,5.1,1.5,6.1c0.9,3.4,1.6,5.7,2,6.9h-7.2c0.7-1.9,1.3-4,2-6.4L226.1,221.8z M253.8,248.7v-14.3c0.5,0,0.8,0.1,1.2,0.3
		c0.7,0.3,1.4,1,2.2,2.1c0.8,1.1,2.2,3.2,4.1,6.3c1.1,1.8,2.3,3.6,3.6,5.6h9.1c-4.8-7.3-7.9-11.8-9.3-13.3c-0.5-0.5-1-1-1.6-1.4
		c2.4,0,4.4-1,6-2.8c1.7-1.8,2.5-4.1,2.5-6.6c0-3-1-5.5-3.1-7.3c-2.1-1.8-4.8-2.8-8.2-2.8l-14.4-0.1v34.3H253.8z M256.6,219.9
		c2.3,0,4,0.3,5,0.8c1.4,0.7,2.1,2,2.1,3.9c0,1.5-0.5,2.6-1.4,3.4c-1,0.8-2.9,1.2-5.9,1.2h-2.6l0.1-9.3L256.6,219.9 M280.9,248.7
		h8.1v-34.3h-8.1V248.7z M303.7,220.1v28.5h7.5v-28.5h8.8l1.2-5.7h-26.5v5.7H303.7z M335.9,248.7h7.5v-14.1l11.5-20.2h-8.5l-4.6,9.6
		c-0.5,1.1-1.2,2.5-1.9,4.3c-0.5-1.4-1.1-2.8-1.8-4.4l-4.6-9.5h-8.7l11.2,20.3v14H335.9z M384.8,248.9l3-14.1c1-5,1.6-8.3,1.8-9.9
		c0.8,4.4,1.4,7.8,1.8,10l3.3,14h8.1l8.9-34.7H404l-3,13.1c-1,4.5-1.7,8.3-2,11.4c-0.6-4.1-1.2-7.1-1.6-9.1l-3.4-15.4h-8.1
		l-3.3,13.9c-0.8,3.4-1.5,7-1.9,11c-0.3-3.3-1-7-2-11.3l-3.2-13.6h-7.9l8.8,34.7H384.8z M419.9,248.6l2.7-8.2h11.3l2.7,8.2h8.3
		l-12.2-34.5h-8.4l-12.7,34.5H419.9z M428.4,221.7c0.8,3.1,1.3,5.1,1.6,6.1c1,3.4,1.7,5.7,2.1,6.9h-7.6c0.7-1.9,1.4-4.1,2.1-6.4
		L428.4,221.7z M452,219.9v28.6h7.9v-28.6h9.2l1.3-5.7h-27.7v5.7H452z M487.8,213.5c-2.8,0-5.4,0.7-7.8,2.1
		c-2.4,1.4-4.3,3.4-5.6,5.8c-1.6,2.9-2.4,6.5-2.4,10.7c0,5.1,1.4,9.2,4.3,12.3c2.8,3.1,6.6,4.7,11.4,4.7c3.8,0,7.1-1.1,9.7-3.2
		l-3.2-4.4c-1.9,1.5-3.9,2.2-6,2.2c-3.1,0-5.3-1.3-6.7-3.8c-1-1.8-1.5-4.8-1.5-9.2c0-4,0.7-7,2-8.9s3.3-2.9,5.9-2.9
		c2,0,3.8,0.6,5.6,1.9l3.2-4.7C494.5,214.4,491.5,213.5,487.8,213.5 M510.5,248.6v-15.3h9.6v15.3h6.8v-34.4h-6.8v13.4h-9.6v-13.4
		h-6.7v34.4H510.5z M94.2,286v-10.3h44.6l-2,10.3H122v51.5h-12.6V286H94.2z M157.6,278c-4.4,2.4-7.8,6.2-10.3,11.3
		c-2.5,5.1-3.7,11-3.7,17.7c0,9.2,2.4,16.8,7.1,23c4.5,5.8,11.2,8.7,20.1,8.7c4.8,0,8.9-0.9,12.4-2.8c9.2-5.1,13.8-14.9,13.8-29.4
		c0-9.7-2.4-17.4-7.1-23c-4.7-5.6-11.2-8.4-19.5-8.4C165.6,274.9,161.3,275.9,157.6,278 M181.1,292.4c1.1,3.4,1.6,8.2,1.6,14.3
		c0,7.9-1,13.6-2.9,17.1c-1.9,3.5-5.1,5.3-9.4,5.3c-3,0-5.5-0.7-7.4-2.1c-3.7-2.7-5.5-9.4-5.5-20c0-7.3,1-12.9,3.1-16.9
		c1.9-3.6,5.1-5.4,9.6-5.4c3,0,5.5,0.9,7.6,2.8C179.4,288.7,180.5,290.4,181.1,292.4 M225.8,337.6v-22.8h6.8c5.4,0,9.5-0.7,12.4-2
		c3.4-1.6,6-4,7.9-7.2s2.8-6.9,2.8-10.9c0-7.4-3-12.7-8.9-16c-3.6-2-9.3-3-17.2-3h-16.3v62h12.5V337.6z M233.7,285.6
		c2.6,0,4.7,0.8,6.1,2.5c1.5,1.6,2.2,3.9,2.2,6.8c0,2.8-0.5,5-1.5,6.5s-2.2,2.5-3.6,2.9c-0.9,0.2-2.5,0.4-4.7,0.4h-6.5v-19.1
		L233.7,285.6 M309.3,337.6v-25.8c0.7,0.1,1.4,0.2,2,0.5c1.1,0.5,2.3,1.8,3.6,3.8c1.3,1.9,3.5,5.7,6.6,11.4
		c1.8,3.2,3.7,6.6,5.8,10.2H342c-7.7-13.2-12.7-21.3-14.9-24c-0.8-0.9-1.6-1.8-2.6-2.6c3.8-0.1,7-1.8,9.8-5.1
		c2.7-3.4,4.1-7.4,4.1-12c0-5.5-1.7-9.9-5-13.2c-3.3-3.3-7.7-5-13.2-5l-23-0.1v62L309.3,337.6L309.3,337.6z M313.7,285.7
		c3.7,0,6.3,0.5,8,1.4c2.3,1.2,3.5,3.6,3.5,7c0,2.7-0.8,4.7-2.3,6.1s-4.7,2.1-9.4,2.1h-4.2l0.1-16.7h4.3 M364.5,337.6l4.4-14.7H387
		l4.4,14.7h13.4l-19.5-62h-13.5l-20.3,62H364.5z M378.2,289.2c1.2,5.5,2.1,9.2,2.5,10.9c1.5,6.2,2.7,10.3,3.4,12.5H372
		c1.1-3.4,2.2-7.3,3.3-11.5L378.2,289.2z M422.6,286v51.5h12.6V286H450l2-10.3h-44.6V286H422.6z M500.6,337.6v-10.7h-23.4v-16.5
		h17.5v-10.2H477v-14.3h21.2l1.6-10.1h-35.2v61.9L500.6,337.6L500.6,337.6z M530.4,337.6c3.6,0,6.5-0.1,8.9-0.4
		c6.2-0.6,11.2-3.6,15.1-8.9c4.1-5.7,6.2-12.7,6.2-21.1c0-11-2.8-19.2-8.4-24.7c-3.8-3.7-8.3-5.7-13.5-6.1c-3-0.2-6.6-0.4-10.8-0.4
		h-12.5v61.5h15V337.6z M533.7,285.9c4.4,0,7.7,1.7,9.8,5.2c2.1,3.4,3.1,9.2,3.1,17.4c0,12.7-4,19.1-11.9,19.1H528V286h5.7"/>
	<path class="st2" d="M166,213.7c4.1,0,7.3,0.9,9.6,2.7l-3.4,4.6c-1.9-1.3-3.9-1.9-6-1.9c-2.8,0-4.9,1-6.4,2.9s-2.2,4.8-2.2,8.7
		c0,4.3,0.5,7.3,1.6,9c1.6,2.5,4,3.8,7.3,3.8c2.3,0,4.5-0.7,6.5-2.2l3.5,4.3c-2.9,2.1-6.4,3.1-10.5,3.1c-5.2,0-9.3-1.5-12.3-4.6
		c-3.2-3.1-4.8-7.1-4.8-12.1c0-4.1,0.8-7.6,2.6-10.5c1.4-2.5,3.5-4.4,6-5.7C160.1,214.3,163,213.7,166,213.7z M188,248.7v-15.3h9.9
		v15.3h7v-34.3h-7v13.3H188v-13.3h-6.9v34.3H188z M218,248.7l2.6-8.1h10.8l2.6,8.1h8l-11.6-34.4h-8l-12.1,34.4H218z M226.1,221.8
		c0.7,3.1,1.2,5.1,1.5,6.1c0.9,3.4,1.6,5.7,2,6.9h-7.2c0.7-1.9,1.3-4,2-6.4L226.1,221.8z M253.8,248.7v-14.3c0.5,0,0.8,0.1,1.2,0.3
		c0.7,0.3,1.4,1,2.2,2.1c0.8,1.1,2.2,3.2,4.1,6.3c1.1,1.8,2.3,3.6,3.6,5.6h9.1c-4.8-7.3-7.9-11.8-9.3-13.3c-0.5-0.5-1-1-1.6-1.4
		c2.4,0,4.4-1,6-2.8c1.7-1.8,2.5-4.1,2.5-6.6c0-3-1-5.5-3.1-7.3c-2.1-1.8-4.8-2.8-8.2-2.8l-14.4-0.1v34.3H253.8z M261.6,220.7
		c1.4,0.7,2.1,2,2.1,3.9c0,1.5-0.5,2.6-1.4,3.4c-1,0.8-2.9,1.2-5.9,1.2h-2.6l0.1-9.3h2.7C258.8,219.9,260.5,220.2,261.6,220.7z
		 M280.9,248.7h8.1v-34.3h-8.1V248.7z M303.7,220.1v28.5h7.5v-28.5h8.8l1.2-5.7h-26.5v5.7H303.7z M335.9,248.7h7.5v-14.1l11.5-20.2
		h-8.5l-4.6,9.6c-0.5,1.1-1.2,2.5-1.9,4.3c-0.5-1.4-1.1-2.8-1.8-4.4l-4.6-9.5h-8.7l11.2,20.3v14H335.9z M384.8,248.9l3-14.1
		c1-5,1.6-8.3,1.8-9.9c0.8,4.4,1.4,7.8,1.8,10l3.3,14h8.1l8.9-34.7H404l-3,13.1c-1,4.5-1.7,8.3-2,11.4c-0.6-4.1-1.2-7.1-1.6-9.1
		l-3.4-15.4h-8.1l-3.3,13.9c-0.8,3.4-1.5,7-1.9,11c-0.3-3.3-1-7-2-11.3l-3.2-13.6h-7.9l8.8,34.7H384.8z M419.9,248.6l2.7-8.2h11.3
		l2.7,8.2h8.3l-12.2-34.5h-8.4l-12.7,34.5H419.9z M428.4,221.7c0.8,3.1,1.3,5.1,1.6,6.1c1,3.4,1.7,5.7,2.1,6.9h-7.6
		c0.7-1.9,1.4-4.1,2.1-6.4L428.4,221.7z M452,219.9v28.6h7.9v-28.6h9.2l1.3-5.7h-27.7v5.7H452z M479.9,215.6
		c-2.4,1.4-4.3,3.4-5.6,5.8c-1.6,2.9-2.4,6.5-2.4,10.7c0,5.1,1.4,9.2,4.3,12.3c2.8,3.1,6.6,4.7,11.4,4.7c3.8,0,7.1-1.1,9.7-3.2
		l-3.2-4.4c-1.9,1.5-3.9,2.2-6,2.2c-3.1,0-5.3-1.3-6.7-3.8c-1-1.8-1.5-4.8-1.5-9.2c0-4,0.7-7,2-8.9s3.3-2.9,5.9-2.9
		c2,0,3.8,0.6,5.6,1.9l3.2-4.7c-2.1-1.8-5.1-2.7-8.9-2.7C484.9,213.5,482.3,214.2,479.9,215.6z M510.5,248.6v-15.3h9.6v15.3h6.8
		v-34.4h-6.8v13.4h-9.6v-13.4h-6.7v34.4H510.5z M94.2,286v-10.3h44.6l-2,10.3H122v51.5h-12.6V286H94.2z M147.3,289.2
		c-2.5,5.1-3.7,11-3.7,17.7c0,9.2,2.4,16.8,7.1,23c4.5,5.8,11.2,8.7,20.1,8.7c4.8,0,8.9-0.9,12.4-2.8c9.2-5.1,13.8-14.9,13.8-29.4
		c0-9.7-2.4-17.4-7.1-23c-4.7-5.6-11.2-8.4-19.5-8.4c-4.9,0-9.1,1-12.8,3C153.2,280.4,149.8,284.1,147.3,289.2z M182.7,306.7
		c0,7.9-1,13.6-2.9,17.1c-1.9,3.5-5.1,5.3-9.4,5.3c-3,0-5.5-0.7-7.4-2.1c-3.7-2.7-5.5-9.4-5.5-20c0-7.3,1-12.9,3.1-16.9
		c1.9-3.6,5.1-5.4,9.6-5.4c3,0,5.5,0.9,7.6,2.8c1.6,1.4,2.7,3.1,3.3,5.1C182.2,295.8,182.7,300.6,182.7,306.7z M225.8,337.6v-22.8
		h6.8c5.4,0,9.5-0.7,12.4-2c3.4-1.6,6-4,7.9-7.2s2.8-6.9,2.8-10.9c0-7.4-3-12.7-8.9-16c-3.6-2-9.3-3-17.2-3h-16.3v62h12.5V337.6z
		 M239.8,288.1c1.5,1.6,2.2,3.9,2.2,6.8c0,2.8-0.5,5-1.5,6.5s-2.2,2.5-3.6,2.9c-0.9,0.2-2.5,0.4-4.7,0.4h-6.5v-19.1h7.9
		C236.3,285.6,238.3,286.4,239.8,288.1z M309.3,337.6v-25.8c0.7,0.1,1.4,0.2,2,0.5c1.1,0.5,2.3,1.8,3.6,3.8
		c1.3,1.9,3.5,5.7,6.6,11.4c1.8,3.2,3.7,6.6,5.8,10.2H342c-7.7-13.2-12.7-21.3-14.9-24c-0.8-0.9-1.6-1.8-2.6-2.6
		c3.8-0.1,7-1.8,9.8-5.1c2.7-3.4,4.1-7.4,4.1-12c0-5.5-1.7-9.9-5-13.2c-3.3-3.3-7.7-5-13.2-5l-23-0.1v62L309.3,337.6L309.3,337.6z
		 M321.7,287.1c2.3,1.2,3.5,3.6,3.5,7c0,2.7-0.8,4.7-2.3,6.1s-4.7,2.1-9.4,2.1h-4.2l0.1-16.7h4.4
		C317.4,285.7,320.1,286.2,321.7,287.1z M364.5,337.6l4.4-14.7H387l4.4,14.7h13.4l-19.5-62h-13.5l-20.3,62H364.5z M378.2,289.2
		c1.2,5.5,2.1,9.2,2.5,10.9c1.5,6.2,2.7,10.3,3.4,12.5H372c1.1-3.4,2.2-7.3,3.3-11.5L378.2,289.2z M422.6,286v51.5h12.6V286H450
		l2-10.3h-44.6V286H422.6z M500.6,337.6v-10.7h-23.4v-16.5h17.5v-10.2H477v-14.3h21.2l1.6-10.1h-35.2v61.9L500.6,337.6L500.6,337.6z
		 M530.4,337.6c3.6,0,6.5-0.1,8.9-0.4c6.2-0.6,11.2-3.6,15.1-8.9c4.1-5.7,6.2-12.7,6.2-21.1c0-11-2.8-19.2-8.4-24.7
		c-3.8-3.7-8.3-5.7-13.5-6.1c-3-0.2-6.6-0.4-10.8-0.4h-12.5v61.5h15V337.6z M543.5,291c2.1,3.4,3.1,9.2,3.1,17.4
		c0,12.7-4,19.1-11.9,19.1H528v-41.6h5.7C538.1,285.9,541.4,287.6,543.5,291z"/>
</g>
<g>
	<g>
		<defs>
			<polygon id="SVGID_1_" points="268.8,300.7 258,302.6 266.1,310.1 264.5,321 274.1,315.6 284,320.5 281.8,309.6 289.5,301.8 
				278.6,300.5 273.4,290.7 			"/>
		</defs>
		<clipPath id="SVGID_2_">
			<use xlink:href="#SVGID_1_"  style="overflow:visible;"/>
		</clipPath>
		
			<radialGradient id="SVGID_3_" cx="-915.4984" cy="-299.926" r="18.8463" gradientTransform="matrix(0.8192 0 0 0.8192 1024.5312 552.7794)" gradientUnits="userSpaceOnUse">
			<stop  offset="0" style="stop-color:#FFFFFF"/>
			<stop  offset="1.799212e-02" style="stop-color:#FFFEEA"/>
			<stop  offset="6.827134e-02" style="stop-color:#FEFAB4"/>
			<stop  offset="0.1204" style="stop-color:#FDF784"/>
			<stop  offset="0.1733" style="stop-color:#FCF45B"/>
			<stop  offset="0.2271" style="stop-color:#FBF23A"/>
			<stop  offset="0.2822" style="stop-color:#FBF021"/>
			<stop  offset="0.339" style="stop-color:#FAEF0E"/>
			<stop  offset="0.3987" style="stop-color:#FAEE04"/>
			<stop  offset="0.4659" style="stop-color:#FAEE00"/>
			<stop  offset="0.8563" style="stop-color:#F8B62D"/>
			<stop  offset="1" style="stop-color:#F8B62D"/>
		</radialGradient>
		<rect x="258" y="290.7" class="st3" width="31.5" height="30.2"/>
	</g>
</g>
</svg>
