<?xml version="1.0" encoding="utf-8"?>
<!-- Generator: Adobe Illustrator 25.2.1, SVG Export Plug-In . SVG Version: 6.00 Build 0)  -->
<svg version="1.1" id="Layer_1" xmlns="http://www.w3.org/2000/svg" xmlns:xlink="http://www.w3.org/1999/xlink" x="0px" y="0px"
	 viewBox="0 0 500 500" style="enable-background:new 0 0 500 500;" xml:space="preserve">
<style type="text/css">
	.st0{fill:#FFFFFF;}
	.st1{fill:#9299AD;}
	.st2{fill:#697185;}
	.st3{fill:#77819C;}
	.st4{fill:#B1B6CB;}
	.st5{fill:#6F7680;}
	.st6{fill:#FAFAF8;}
	.st7{display:none;}
	.st8{fill:#00447C;}
	.st9{fill:#FFC425;}
</style>
<g id="Layer_10">
	<circle class="st0" cx="249.4" cy="253.8" r="183.2"/>
</g>
<g id="ribbon">
	<g>
		<g>
			<polygon class="st1" points="467.2,337.6 498,299.6 436.5,299.6 424.9,316.8 396.8,333.5 436.5,333.5 436.5,371.8 498,371.5 			
				"/>
			<polygon class="st1" points="89.5,333.5 65.7,299.6 1,299.6 29.8,336.7 1,373.8 62.5,373.5 62.5,333.5 			"/>
		</g>
	</g>
</g>
<g id="Layer_9">
	<polygon class="st2" points="62.5,333.5 85,317.4 103.5,342.3 419.6,339.7 422.7,317.4 436.5,333.5 414.4,366 114.6,362.7 	"/>
</g>
<path class="st3" d="M248.2,442.7c-107.1,0-194.1-87.1-194.1-194.1S141.2,54.4,248.2,54.4s194.1,87.1,194.1,194.1
	S355.3,442.7,248.2,442.7z M248.2,77.7c-94.2,0-170.8,76.6-170.8,170.8S154,419.4,248.2,419.4S419,342.7,419,248.5
	S342.4,77.7,248.2,77.7z"/>
<g id="guide">
	<g>
		<path d="M130.7,261.4l-1.3,0.2l-2.3-7.8c-2.7-0.6-5.2-1-7.5-1c-5.5,0-9.7,1.7-12.8,5c-3.1,3.4-4.6,8-4.6,13.9c0,6,1.7,10.7,5,14.2
			s7.8,5.3,13.4,5.3c1.9,0,3.7-0.2,5.6-0.7v-8c0-1,0-1.9,0-2.7c0-0.8,0-1.6,0-2.2c0-0.5-0.3-0.8-0.8-1l-4.1-1.2l-0.1-1.3
			c2.8,0.1,5.5,0.1,8.1,0.1c2.6,0,5.2,0,7.6-0.1l0.2,1.3l-3.6,1c-0.5,0.2-0.8,0.5-0.8,0.9c0,0.8,0,1.6,0,2.4s0,1.7,0,2.7v9.5
			l-0.2,0.2c-4.5,1-8.6,1.5-12.3,1.5c-7.7,0-13.8-1.8-18.3-5.5s-6.8-8.8-6.8-15.5c0-7,2.4-12.5,7.1-16.5s11.1-6,19.3-6
			c3.5,0,7.2,0.4,11.1,1.2l0.2,0.2L130.7,261.4z"/>
		<path d="M137.4,259.3c2.6,0.1,5,0.1,7.4,0.1s4.8,0,7.4-0.1l0.1,1l-3.7,0.9c-0.5,0.1-0.7,0.3-0.8,0.7c0,0.6,0,1.2,0,1.8
			c0,0.7,0,1.4,0,2.2v13c0,4.5,0.9,7.7,2.7,9.4c1.8,1.8,4.7,2.6,8.7,2.6c4.1,0,7-0.9,8.8-2.7c1.8-1.8,2.7-4.8,2.7-9.1v-13.3
			c0-0.8,0-1.5,0-2.2s0-1.3-0.1-1.8c0-0.4-0.3-0.6-0.8-0.7l-3.5-0.8l-0.1-1.1c2.5,0.1,4.7,0.1,6.5,0.1c1.7,0,3.8,0,6.3-0.1l0.1,1
			l-3.7,0.9c-0.5,0.1-0.7,0.4-0.7,0.8c0,0.5,0,1.1,0,1.8s0,1.4,0,2.2v12.2c0,5.2-1.3,9.1-4,11.6c-2.6,2.5-6.8,3.7-12.5,3.7
			c-5.6,0-9.7-1.1-12.4-3.4c-2.7-2.2-4-5.7-4-10.5V266c0-0.8,0-1.5,0-2.2s0-1.2,0-1.8c0-0.4-0.3-0.7-0.7-0.8l-3.7-0.9V259.3z"/>
		<path d="M191.1,285.3c0,1,0,1.8,0,2.6c0,0.8,0,1.5,0,2.1c0,0.4,0.4,0.7,1,0.8l3.4,0.8l0.1,1c-2.6,0-5-0.1-7.4-0.1s-4.9,0-7.4,0.1
			l-0.1-1l3.7-0.9c0.5-0.1,0.8-0.4,0.8-0.7c0-0.6,0-1.3,0-2.1c0-0.8,0-1.7,0-2.6V266c0-0.8,0-1.5,0-2.2s0-1.2,0-1.8
			c0-0.4-0.3-0.7-0.7-0.8l-3.7-0.9l-0.1-1c2.6,0.1,5,0.1,7.4,0.1s4.8,0,7.4-0.1l0.1,1l-3.7,0.9c-0.5,0.1-0.7,0.3-0.8,0.7
			c0,0.6,0,1.2,0,1.8c0,0.7,0,1.4,0,2.2V285.3L191.1,285.3z"/>
		<path d="M205.9,292.7c-2.4,0-4.9,0-7.4,0.1l-0.1-1l3.7-0.9c0.5-0.1,0.8-0.4,0.8-0.7c0-0.6,0-1.3,0-2.1c0-0.8,0-1.7,0-2.6V266
			c0-0.8,0-1.5,0-2.2s0-1.2,0-1.8c0-0.4-0.3-0.7-0.7-0.8l-3.7-0.9l-0.1-1c2.6,0.1,5.1,0.1,7.5,0.1c2,0,3.9,0,5.7-0.1
			s3.7-0.1,5.7-0.1c6.9,0,12.2,1.3,15.6,3.8c3.5,2.5,5.2,6.3,5.2,11.3c0,5.9-1.9,10.4-5.8,13.7c-3.9,3.2-9.3,4.9-16.3,4.9
			c-1.9,0-3.6,0-5.1-0.1C209.4,292.7,207.7,292.7,205.9,292.7z M208.8,290.5c1.2,0.1,2.3,0.2,3.4,0.3c1.1,0,2.2,0.1,3.4,0.1
			c5.2,0,9.2-1.2,12-3.7c2.7-2.5,4.1-6.3,4.1-11.3s-1.3-8.6-3.9-11c-2.6-2.4-6.7-3.6-12.4-3.6c-0.9,0-1.9,0-3,0s-2.3,0.1-3.7,0.2
			L208.8,290.5L208.8,290.5z"/>
		<path d="M248.5,259.4h7.2c4.4,0,9.1,0,14.1-0.1l0.2,0.2l-1.7,7.4l-1.2,0.2l-1.8-5.5h-13.8v13.1h2.7c2.1,0,4.4,0,6.9,0
			c0.5,0,0.9-0.2,1-0.6l1-3.2h1.6c-0.1,2.2-0.1,3.9-0.1,4.9s0,2.6,0.1,4.9l-1.6,0.1l-1.1-3.3c-0.2-0.4-0.5-0.6-0.9-0.6
			c-2.6,0-4.9,0-7,0h-2.7v8.7c0,1.8,0,3.5,0.1,5.2h14.3l3.6-6.1l1.3-0.2l-0.7,8.3l-0.2,0.2c-5.1,0-9.9-0.1-14.2-0.1h-7.1
			c-2.4,0-4.9,0-7.4,0.1l-0.1-1l3.7-0.9c0.5-0.1,0.8-0.4,0.8-0.7c0-0.6,0-1.3,0-2.1c0-0.8,0-1.7,0-2.6V266c0-0.8,0-1.5,0-2.2
			s0-1.2,0-1.8c0-0.4-0.3-0.7-0.7-0.8l-3.7-0.9l-0.1-1C243.7,259.4,246.2,259.4,248.5,259.4z"/>
		<path d="M294.2,253.7c-2.1-0.7-4-1-5.7-1c-2.6,0-4.7,0.6-6.3,1.9c-1.6,1.3-2.3,3-2.3,5.3c0,1.3,0.3,2.4,0.8,3.4s1.3,1.8,2.2,2.6
			c0.9,0.7,2,1.4,3.1,2c1.2,0.6,2.4,1.1,3.6,1.7c1.4,0.6,2.7,1.2,4,1.9c1.3,0.7,2.5,1.4,3.5,2.3s1.9,2,2.5,3.2s0.9,2.7,0.9,4.4
			c0,4-1.5,7-4.6,9.1s-7.1,3.1-12,3.1c-3.2,0-6.6-0.5-10.5-1.6l-0.2-0.2l1.5-10.1l1.3-0.2l2.1,8.5c2.1,0.8,4.3,1.2,6.5,1.2
			c3,0,5.3-0.7,6.9-2c1.7-1.3,2.5-3.2,2.5-5.6c0-1.3-0.3-2.4-0.8-3.3c-0.5-1-1.3-1.8-2.2-2.5c-0.9-0.7-1.9-1.3-3.1-1.9
			s-2.3-1.1-3.6-1.7c-1.4-0.6-2.7-1.2-4-1.9c-1.3-0.7-2.5-1.5-3.6-2.4s-1.9-2.1-2.5-3.4s-1-2.9-1-4.7c0-3.6,1.5-6.4,4.5-8.3
			c3-2,6.7-2.9,11.2-2.9c3.1,0,6.4,0.4,9.9,1.1l0.2,0.2l-1.8,9.3l-1.2,0.2L294.2,253.7z"/>
		<path d="M317.4,292.7c-2.4,0-5.1,0-8.1,0.1l-0.1-1l4.4-1c0.5-0.1,0.8-0.4,0.8-0.7c0-1.2,0.1-2.8,0.1-4.6v-23.8H304l-2.6,6.3
			l-1.2,0.2l-0.8-8.5l0.2-0.2c4.9,0.1,9.6,0.1,14,0.1h8c4.4,0,9.1,0,14.1-0.1l0.2,0.2l-1.9,8.4l-1.2,0.2l-1.9-6.5h-10.5v23.8
			c0,1.9,0,3.4,0.1,4.6c0,0.4,0.3,0.6,0.8,0.7l4.4,1l0.1,1C322.5,292.7,319.8,292.7,317.4,292.7z"/>
		<path d="M352.2,258.8l13.2,29.1c0.5,1.1,1,1.8,1.4,2.2c0.4,0.4,1,0.7,1.7,0.9l2.8,0.7l0.1,1c-2.6,0-5-0.1-7.2-0.1
			c-2.3,0-4.9,0-8,0.1l-0.1-1l2.8-0.7c0.4-0.1,0.7-0.2,0.8-0.4c0.2-0.1,0.3-0.3,0.3-0.6c0-0.3-0.1-0.7-0.3-1.2
			c-0.2-0.5-0.5-1.2-0.9-2.1l-2.8-6.4h-14.4l-3.1,6.4c-0.4,0.9-0.7,1.6-1,2.1c-0.2,0.5-0.4,0.9-0.4,1.2c0,0.3,0.1,0.5,0.3,0.6
			c0.2,0.1,0.5,0.3,0.8,0.3l2.8,0.6l0.1,1.1c-2.8,0-5.1-0.1-6.9-0.1s-3.8,0-6,0.1l-0.1-1l3-0.7c0.8-0.2,1.3-0.5,1.7-0.9
			c0.4-0.4,0.8-1,1.2-1.9l15.2-29.1L352.2,258.8z M342.7,278.2H355l-5.8-13.1L342.7,278.2z"/>
		<path d="M381.1,285.3c0,1,0,1.8,0,2.6c0,0.8,0,1.5,0,2.1c0,0.5,0.3,0.8,0.8,0.9l3.3,0.8l0.1,1c-2.4,0-4.7-0.1-7.1-0.1
			s-4.9,0-7.4,0.1l-0.1-1l3.7-0.9c0.5-0.1,0.8-0.4,0.8-0.7c0-0.6,0-1.3,0-2.1c0-0.8,0-1.7,0-2.6V266c0-0.8,0-1.5,0-2.2s0-1.2,0-1.8
			c0-0.4-0.3-0.7-0.7-0.8l-3.7-0.9l-0.1-1c2.6,0.1,5.1,0.1,7.5,0.1c0.5,0,1.1,0,1.8,0s1.6-0.1,2.7-0.1s2-0.1,2.7-0.1s1.3,0,1.7,0
			c4.6,0,8,0.7,10.3,2.1s3.4,3.4,3.4,6c0,2.4-0.8,4.3-2.3,5.8c-1.6,1.5-4,2.6-7.2,3.4c1.3,1.5,2.4,3,3.5,4.4s2.1,2.7,3,3.9
			s1.8,2.2,2.5,3.1c0.8,0.9,1.5,1.6,2.1,2.1c0.3,0.3,0.7,0.5,1,0.7s0.7,0.4,1.1,0.5s0.8,0.2,1.2,0.3c0.4,0.1,0.9,0.2,1.4,0.3l0.1,1
			c-1.4,0.1-2.6,0.2-3.6,0.2c-0.8,0-1.5,0-2.1,0s-1.2-0.1-1.7-0.2s-0.9-0.2-1.3-0.4c-0.4-0.1-0.8-0.3-1.2-0.6
			c-0.8-0.5-1.6-1.2-2.4-2.1s-1.6-2-2.5-3.2s-1.7-2.4-2.7-3.7c-0.9-1.3-1.9-2.6-2.9-3.9c-0.3-0.4-0.6-0.7-0.8-0.9
			c-0.2-0.2-0.4-0.4-0.7-0.5c-0.3-0.1-0.5-0.2-0.9-0.3c-0.3,0-0.8-0.1-1.3-0.1H381L381.1,285.3L381.1,285.3z M381.1,275.3
			c1.2,0,2.3,0.1,3.4,0.1c3.4,0,5.9-0.6,7.6-1.8c1.6-1.2,2.4-3,2.4-5.5c0-2.4-0.8-4.2-2.3-5.3c-1.5-1.1-3.9-1.7-7.2-1.7
			c-0.6,0-1.2,0-1.8,0c-0.6,0-1.3,0.1-2.1,0.1V275.3L381.1,275.3z"/>
	</g>
</g>
<g id="partici">
	<path class="st4" d="M359.6,333.3H89.5h-27v42.1v49.4h373.9v-51.2v-40.3H359.6L359.6,333.3z"/>
</g>
<g id="Layer_12">
	<path class="st5" d="M126.9,350.8c2.1-0.4,5.1-0.7,9.1-0.7c4.4,0,7.6,1,9.7,2.9c1.9,1.7,3.2,4.5,3.2,7.8c0,3.4-1,6.1-2.8,8
		c-2.4,2.6-6.1,3.8-10.3,3.8c-1.1,0-2.1-0.1-2.9-0.2v13.3H127L126.9,350.8L126.9,350.8z M132.8,367.3c0.7,0.2,1.7,0.3,2.9,0.3
		c4.5,0,7.2-2.4,7.2-6.5c0-3.9-2.5-6-6.6-6c-1.7,0-2.8,0.2-3.5,0.3L132.8,367.3L132.8,367.3z"/>
	<path class="st5" d="M158.6,350.3h7v30h15.7v5.4h-22.7V350.3z"/>
	<path class="st5" d="M193.6,375.7l-3,10H184l11.2-35.4h8.2l11.4,35.4h-6.9l-3.2-10H193.6z M203.6,370.8l-2.8-8.7
		c-0.7-2.2-1.2-4.6-1.8-6.6l0,0c-0.5,2.1-1,4.5-1.7,6.6l-2.7,8.7H203.6z"/>
	<path class="st5" d="M225,355.7h-10.3v-5.4H242v5.4h-10.4v30H225V355.7L225,355.7z"/>
	<path class="st5" d="M255,350.3v35.4h-7v-35.4H255z"/>
	<path class="st5" d="M267.5,386.2v-35.4h7l8.7,15.2c2.2,3.9,4.2,8,5.7,11.9h0.1c-0.4-4.7-0.6-9.3-0.6-14.7v-12.3h5.7v35.4h-6.3
		l-8.8-15.5c-2.1-3.9-4.4-8.2-6-12.2l-0.1,0.1c0.3,4.6,0.3,9.2,0.3,15.1v12.7L267.5,386.2L267.5,386.2z"/>
	<path class="st5" d="M311.5,350.1v20.8c0,7,2.7,10.2,6.8,10.2c4.4,0,6.9-3.2,6.9-10.2v-20.8h6v20.4c0,11-5.2,15.9-13.2,15.9
		c-7.6,0-12.6-4.6-12.6-15.8v-20.4L311.5,350.1L311.5,350.1z"/>
	<path class="st5" d="M371.9,371.3c-0.2-4.6-0.5-10.1-0.4-14.9h-0.2c-1.2,4.3-2.7,9.1-4.3,13.5l-5.2,15.3h-5.1l-4.8-15.1
		c-1.4-4.5-2.7-9.3-3.6-13.8h-0.1c-0.2,4.6-0.4,10.2-0.6,15.1l-0.8,14.2h-6.1l2.4-35.4h8.6l4.7,14.2c1.3,4.1,2.4,8.3,3.3,12.3h0.2
		c1-3.8,2.2-8.2,3.6-12.3l5-14.2h8.5l2.1,35.4h-6.4L371.9,371.3z"/>
</g>
<g id="Layer_13">
	<g>
		<g>
			<path class="st5" d="M160.8,398.6c1.3-0.2,3-0.4,5.4-0.4c2.6,0,4.5,0.6,5.8,1.6c1.2,1,1.9,2.5,1.9,4.3s-0.6,3.4-1.7,4.4
				c-1.4,1.4-3.6,2.1-6.2,2.1c-0.7,0-1.3,0-1.7-0.1v7.3h-3.5V398.6L160.8,398.6z M164.3,407.7c0.4,0.1,1,0.1,1.7,0.1
				c2.7,0,4.3-1.3,4.3-3.6c0-2.2-1.5-3.3-4-3.3c-1,0-1.7,0.1-2.1,0.2v6.6H164.3z"/>
			<path class="st5" d="M181.7,412.3l-1.7,5.5h-3.7l6.2-19.5h4.5l6.3,19.5h-3.8l-1.8-5.5H181.7z M187.3,409.6l-1.5-4.8
				c-0.4-1.2-0.7-2.5-1-3.6h-0.1c-0.3,1.1-0.6,2.5-0.9,3.6l-1.5,4.8H187.3z"/>
			<path class="st5" d="M199,398.6c1.3-0.2,3.3-0.4,5.4-0.4c2.8,0,4.7,0.5,6,1.6c1.1,0.9,1.7,2.3,1.7,3.9c0,2.5-1.7,4.2-3.5,4.9v0.1
				c1.4,0.5,2.2,1.9,2.7,3.8c0.6,2.4,1.1,4.7,1.5,5.4h-3.7c-0.3-0.6-0.8-2.2-1.3-4.6c-0.6-2.5-1.5-3.4-3.5-3.4h-1.8v8H199V398.6
				L199,398.6z M202.6,407.2h2.1c2.4,0,3.9-1.3,3.9-3.2c0-2.1-1.5-3.1-3.8-3.1c-1.1,0-1.8,0.1-2.2,0.2V407.2z"/>
			<path class="st5" d="M222.3,401.3h-5.5v-3h14.7v3h-5.6v16.5h-3.6L222.3,401.3L222.3,401.3z"/>
			<path class="st5" d="M240.2,398.3v19.5h-3.6v-19.5H240.2z"/>
			<path class="st5" d="M261.1,417.2c-0.8,0.4-2.7,0.9-5,0.9c-6.2,0-10-3.9-10-9.8c0-6.4,4.4-10.3,10.4-10.3c2.3,0,4,0.5,4.7,0.9
				l-0.8,2.8c-0.9-0.4-2.2-0.8-3.8-0.8c-4,0-6.8,2.5-6.8,7.2c0,4.3,2.5,7,6.8,7c1.4,0,2.9-0.3,3.9-0.7L261.1,417.2z"/>
			<path class="st5" d="M270.6,398.3v19.5H267v-19.5H270.6z"/>
			<path class="st5" d="M277.5,398.6c1.3-0.2,3-0.4,5.4-0.4c2.6,0,4.5,0.6,5.8,1.6c1.2,1,1.9,2.5,1.9,4.3s-0.6,3.4-1.7,4.4
				c-1.4,1.4-3.6,2.1-6.2,2.1c-0.7,0-1.3,0-1.7-0.1v7.3h-3.5L277.5,398.6L277.5,398.6z M281.1,407.7c0.4,0.1,1,0.1,1.7,0.1
				c2.7,0,4.3-1.3,4.3-3.6c0-2.2-1.5-3.3-4-3.3c-1,0-1.7,0.1-2.1,0.2L281.1,407.7L281.1,407.7z"/>
			<path class="st5" d="M298.4,412.3l-1.7,5.5H293l6.2-19.5h4.5l6.3,19.5h-3.8l-1.8-5.5H298.4z M304,409.6l-1.5-4.8
				c-0.4-1.2-0.7-2.5-1-3.6h-0.1c-0.3,1.1-0.6,2.5-0.9,3.6l-1.5,4.8H304z"/>
			<path class="st5" d="M315.8,417.8v-19.5h4l5,8.4c1.3,2.2,2.4,4.4,3.3,6.5h0.1c-0.2-2.6-0.3-5.1-0.3-8.1v-6.8h3.3v19.5h-3.7
				l-5.1-8.6c-1.2-2.1-2.5-4.5-3.5-6.7h-0.1c0.1,2.5,0.2,5.1,0.2,8.3v7L315.8,417.8L315.8,417.8z"/>
			<path class="st5" d="M342,401.3h-5.5v-3h14.7v3h-5.6v16.5H342V401.3z"/>
		</g>
	</g>
</g>
<g id="Layer_11">
	<path class="st6" d="M125.1,345.9c2.1-0.4,5.1-0.7,9.1-0.7c4.4,0,7.6,1,9.7,2.9c1.9,1.7,3.2,4.5,3.2,7.8c0,3.4-1,6.1-2.8,8
		c-2.4,2.6-6.1,3.8-10.3,3.8c-1.1,0-2.1-0.1-2.9-0.2v13.3h-5.9L125.1,345.9L125.1,345.9z M131.1,362.4c0.7,0.2,1.7,0.3,2.9,0.3
		c4.5,0,7.2-2.4,7.2-6.5c0-3.9-2.5-6-6.6-6c-1.7,0-2.8,0.2-3.5,0.3L131.1,362.4L131.1,362.4z"/>
	<path class="st6" d="M156.8,345.4h7v30h15.7v5.4h-22.7V345.4z"/>
	<path class="st6" d="M191.8,370.7l-3,10h-6.6l11.2-35.4h8.2l11.4,35.4h-6.9l-3.2-10H191.8z M201.8,365.9l-2.8-8.7
		c-0.7-2.2-1.2-4.6-1.8-6.6h-0.1c-0.5,2.1-1,4.5-1.7,6.6l-2.7,8.7H201.8z"/>
	<path class="st6" d="M223.2,350.8H213v-5.4h27.2v5.4h-10.4v30h-6.6V350.8L223.2,350.8z"/>
	<path class="st6" d="M253.3,345.4v35.4h-7v-35.4H253.3z"/>
	<path class="st6" d="M265.8,381.2v-35.4h7l8.7,15.2c2.2,3.9,4.2,8,5.7,11.9h0.1c-0.4-4.7-0.6-9.3-0.6-14.7v-12.3h5.7v35.4h-6.3
		l-8.8-15.5c-2.1-3.9-4.4-8.2-6-12.2l-0.1,0.1c0.3,4.6,0.3,9.2,0.3,15.1v12.7L265.8,381.2L265.8,381.2z"/>
	<path class="st6" d="M309.7,345.1v20.8c0,7,2.7,10.2,6.8,10.2c4.4,0,6.9-3.2,6.9-10.2v-20.8h6v20.4c0,11-5.2,15.9-13.2,15.9
		c-7.6,0-12.6-4.6-12.6-15.8v-20.4L309.7,345.1L309.7,345.1z"/>
	<path class="st6" d="M370.2,366.3c-0.2-4.6-0.5-10.1-0.4-14.9h-0.2c-1.2,4.3-2.7,9.1-4.3,13.5l-5.2,15.3H355l-4.8-15.1
		c-1.4-4.5-2.7-9.3-3.6-13.8h-0.1c-0.2,4.6-0.4,10.2-0.6,15.1l-0.8,14.2H339l2.4-35.4h8.6l4.7,14.2c1.3,4.1,2.4,8.3,3.3,12.3h0.2
		c1-3.8,2.2-8.2,3.6-12.3l5-14.2h8.5l2.1,35.4H371L370.2,366.3z"/>
	<g>
		<g>
			<path class="st6" d="M160.8,396.2c1.3-0.2,3-0.4,5.4-0.4c2.6,0,4.5,0.6,5.8,1.6c1.2,1,1.9,2.5,1.9,4.3s-0.6,3.4-1.7,4.4
				c-1.4,1.4-3.6,2.1-6.2,2.1c-0.7,0-1.3,0-1.7-0.1v7.3h-3.5V396.2L160.8,396.2z M164.3,405.3c0.4,0.1,1,0.1,1.7,0.1
				c2.7,0,4.3-1.3,4.3-3.6c0-2.2-1.5-3.3-4-3.3c-1,0-1.7,0.1-2.1,0.2v6.6H164.3z"/>
			<path class="st6" d="M181.7,409.9l-1.7,5.5h-3.7l6.2-19.5h4.5l6.3,19.5h-3.8l-1.8-5.5H181.7z M187.3,407.2l-1.5-4.8
				c-0.4-1.2-0.7-2.5-1-3.6h-0.1c-0.3,1.1-0.6,2.5-0.9,3.6l-1.5,4.8H187.3z"/>
			<path class="st6" d="M199,396.2c1.3-0.2,3.3-0.4,5.4-0.4c2.8,0,4.7,0.5,6,1.6c1.1,0.9,1.7,2.3,1.7,3.9c0,2.5-1.7,4.2-3.5,4.9v0.1
				c1.4,0.5,2.2,1.9,2.7,3.8c0.6,2.4,1.1,4.7,1.5,5.4h-3.7c-0.3-0.6-0.8-2.2-1.3-4.6c-0.6-2.5-1.5-3.4-3.5-3.4h-1.8v8H199V396.2
				L199,396.2z M202.6,404.8h2.1c2.4,0,3.9-1.3,3.9-3.2c0-2.1-1.5-3.1-3.8-3.1c-1.1,0-1.8,0.1-2.2,0.2V404.8z"/>
			<path class="st6" d="M222.3,398.9h-5.5v-3h14.7v3h-5.6v16.5h-3.6L222.3,398.9L222.3,398.9z"/>
			<path class="st6" d="M240.2,396v19.5h-3.6V396H240.2z"/>
			<path class="st6" d="M261.1,414.9c-0.8,0.4-2.7,0.9-5,0.9c-6.2,0-10-3.9-10-9.8c0-6.4,4.4-10.3,10.4-10.3c2.3,0,4,0.5,4.7,0.9
				l-0.8,2.8c-0.9-0.4-2.2-0.8-3.8-0.8c-4,0-6.8,2.5-6.8,7.2c0,4.3,2.5,7,6.8,7c1.4,0,2.9-0.3,3.9-0.7L261.1,414.9z"/>
			<path class="st6" d="M270.6,396v19.5H267V396H270.6z"/>
			<path class="st6" d="M277.5,396.2c1.3-0.2,3-0.4,5.4-0.4c2.6,0,4.5,0.6,5.8,1.6c1.2,1,1.9,2.5,1.9,4.3s-0.6,3.4-1.7,4.4
				c-1.4,1.4-3.6,2.1-6.2,2.1c-0.7,0-1.3,0-1.7-0.1v7.3h-3.5L277.5,396.2L277.5,396.2z M281.1,405.3c0.4,0.1,1,0.1,1.7,0.1
				c2.7,0,4.3-1.3,4.3-3.6c0-2.2-1.5-3.3-4-3.3c-1,0-1.7,0.1-2.1,0.2L281.1,405.3L281.1,405.3z"/>
			<path class="st6" d="M298.4,409.9l-1.7,5.5H293l6.2-19.5h4.5l6.3,19.5h-3.8l-1.8-5.5H298.4z M304,407.2l-1.5-4.8
				c-0.4-1.2-0.7-2.5-1-3.6h-0.1c-0.3,1.1-0.6,2.5-0.9,3.6l-1.5,4.8H304z"/>
			<path class="st6" d="M315.8,415.4v-19.5h4l5,8.4c1.3,2.2,2.4,4.4,3.3,6.5h0.1c-0.2-2.6-0.3-5.1-0.3-8.1v-6.8h3.3v19.5h-3.7
				l-5.1-8.6c-1.2-2.1-2.5-4.5-3.5-6.7h-0.1c0.1,2.5,0.2,5.1,0.2,8.3v7L315.8,415.4L315.8,415.4z"/>
			<path class="st6" d="M342,398.9h-5.5v-3h14.7v3h-5.6v16.5H342V398.9z"/>
		</g>
	</g>
</g>
<g id="Layer_14">
	<rect x="62.5" y="423.2" class="st1" width="374" height="9.1"/>
</g>
<g id="Layer_6" class="st7">
</g>
<g>
	<path class="st8" d="M203.4,127.1h92.9c1.2,0,2.1,0.9,2.1,2.1v93.4c0,1.2-0.9,2.1-2.1,2.1h-92.9c-1.2,0-2.1-0.9-2.1-2.1v-93.4
		C201.3,128,202.2,127.1,203.4,127.1z"/>
	<path class="st9" d="M312.7,231.9l-43.3-49.6h20.6c0.4,0,0.8-0.3,0.9-0.8c0-0.4-0.1-0.8-0.6-0.9l-25.9-8.9l27.7-30.7
		c0.3-0.3,0.3-0.8,0-1.1c-0.3-0.3-0.8-0.4-1.1-0.1L265.2,157l1.1-11.5c0-0.4-0.1-0.8-0.6-0.9c-0.3-0.1-0.8,0-1.1,0.3L254.4,160
		l-9.8-58.3c0-0.4-0.4-0.8-0.9-0.8c-0.4,0-0.8,0.4-0.8,0.9l0.1,59.3L207.6,132c-0.3-0.3-0.8-0.3-1.1,0c-0.3,0.3-0.3,0.8,0,1.1
		l30.3,38.3l-46.3,3.2c-0.4,0-0.8,0.4-0.8,0.9c0,0.5,0.3,0.8,0.8,0.8l30.9,2.6l-32.3,16.4c-0.3,0.3-0.4,0.8-0.1,1.2
		c0.1,0.1,0.4,0.3,0.8,0.3l46.3-13l-9,13.8c-0.1,0.3-0.1,0.8,0.1,1.1s0.8,0.3,1.1,0.1l17.1-10.9l1.8,32.9c0,0.4,0.4,0.8,0.9,0.8
		c0.3,0,0.6-0.3,0.8-0.6l8.9-34.7l53.7,47c0.1,0.1,0.3,0.1,0.6,0.1c0.1,0,0.4-0.1,0.6-0.3C312.9,232.9,312.9,232.3,312.7,231.9"/>
	<path class="st0" d="M271.6,190.2l-12.8-11.7h8.6c0.4,0,0.8-0.3,0.9-0.8c0-0.3-0.1-0.8-0.6-0.8l-10.6-3.9l8.6-9.1
		c0.3-0.3,0.3-0.8,0-1.1c-0.3-0.3-0.8-0.3-1.1-0.1l-7.4,5l1.2-4.7c0.1-0.3-0.1-0.8-0.4-0.9s-0.8,0-0.9,0.3l-4.7,6.5l-4.2-25
		c0-0.4-0.4-0.6-0.8-0.6c-0.4,0-0.8,0.4-0.8,0.8l0.8,24.7l-14.4-10.7c-0.3-0.3-0.8-0.1-1.1,0.1c-0.3,0.3-0.3,0.8,0,1.1l11.6,13.7
		l-11.3,1.8c-0.3,0-0.6,0.4-0.6,0.8c0,0.4,0.3,0.8,0.6,0.8l4.8,0.6l-8,3.1c-0.4,0.1-0.6,0.6-0.6,0.9c0,0.3,0.6,0.6,0.9,0.6l0,0
		l15.2-3l-3.8,5.6c-0.1,0.3-0.1,0.8,0,0.9c0.3,0.3,0.6,0.3,0.9,0.1l6.8-4.2l1.2,9.2c0,0.3,0.3,0.6,0.8,0.6c0.3,0,0.8-0.3,0.8-0.6
		l2.3-10.7l16.9,11.8c0.1,0.1,0.3,0.1,0.4,0.1c0.3,0,0.4-0.1,0.6-0.3C271.9,191,271.9,190.5,271.6,190.2"/>
</g>
</svg>
