<?xml version="1.0" encoding="utf-8"?>
<!-- Generator: Adobe Illustrator 25.2.1, SVG Export Plug-In . SVG Version: 6.00 Build 0)  -->
<svg version="1.1" id="Layer_1" xmlns="http://www.w3.org/2000/svg" xmlns:xlink="http://www.w3.org/1999/xlink" x="0px" y="0px"
	 viewBox="0 0 500 393.4" style="enable-background:new 0 0 500 393.4;" xml:space="preserve">
<style type="text/css">
	.st0{fill:#FFFFFF;}
	.st1{fill:#9299AD;}
	.st2{fill:#697185;}
	.st3{fill:#77819C;}
	.st4{fill:#B1B6CB;}
	.st5{fill:#6F7680;}
	.st6{fill:#FAFAF8;}
	.st7{display:none;}
	.st8{fill:#00447C;}
	.st9{fill:#FFC425;}
</style>
<g id="Layer_10">
	<circle class="st0" cx="249.4" cy="203.1" r="183.2"/>
</g>
<g id="ribbon">
	<g>
		<g>
			<polygon class="st1" points="467.2,286.9 498,248.9 436.5,248.9 424.9,266.1 396.8,282.8 436.5,282.8 436.5,321.1 498,320.8 			
				"/>
			<polygon class="st1" points="89.5,282.8 65.7,248.9 1,248.9 29.8,286 1,323.1 62.5,322.8 62.5,282.8 			"/>
		</g>
	</g>
</g>
<g id="Layer_9">
	<polygon class="st2" points="62.5,282.8 85,266.7 103.5,291.6 419.6,289 422.7,266.7 436.5,282.8 414.4,315.3 114.6,312 	"/>
</g>
<path class="st3" d="M248.2,392c-107.1,0-194.1-87.1-194.1-194.1S141.2,3.7,248.2,3.7s194.1,87.1,194.1,194.1S355.3,392,248.2,392z
	 M248.2,27C154,27,77.4,103.6,77.4,197.8S154,368.7,248.2,368.7S419,292,419,197.8S342.4,27,248.2,27z"/>
<g id="guide">
	<g>
		<path d="M130.7,210.7l-1.3,0.2l-2.3-7.8c-2.7-0.6-5.2-1-7.5-1c-5.5,0-9.7,1.7-12.8,5c-3.1,3.4-4.6,8-4.6,13.9c0,6,1.7,10.7,5,14.2
			s7.8,5.3,13.4,5.3c1.9,0,3.7-0.2,5.6-0.7v-8c0-1,0-1.9,0-2.7c0-0.8,0-1.6,0-2.2c0-0.5-0.3-0.8-0.8-1l-4.1-1.2l-0.1-1.3
			c2.8,0.1,5.5,0.1,8.1,0.1c2.6,0,5.2,0,7.6-0.1l0.2,1.3l-3.6,1c-0.5,0.2-0.8,0.5-0.8,0.9c0,0.8,0,1.6,0,2.4s0,1.7,0,2.7v9.5
			l-0.2,0.2c-4.5,1-8.6,1.5-12.3,1.5c-7.7,0-13.8-1.8-18.3-5.5s-6.8-8.8-6.8-15.5c0-7,2.4-12.5,7.1-16.5s11.1-6,19.3-6
			c3.5,0,7.2,0.4,11.1,1.2l0.2,0.2L130.7,210.7z"/>
		<path d="M137.4,208.6c2.6,0.1,5,0.1,7.4,0.1s4.8,0,7.4-0.1l0.1,1l-3.7,0.9c-0.5,0.1-0.7,0.3-0.8,0.7c0,0.6,0,1.2,0,1.8
			c0,0.7,0,1.4,0,2.2v13c0,4.5,0.9,7.7,2.7,9.4c1.8,1.8,4.7,2.6,8.7,2.6c4.1,0,7-0.9,8.8-2.7c1.8-1.8,2.7-4.8,2.7-9.1v-13.3
			c0-0.8,0-1.5,0-2.2s0-1.3-0.1-1.8c0-0.4-0.3-0.6-0.8-0.7l-3.5-0.8l-0.1-1.1c2.5,0.1,4.7,0.1,6.5,0.1c1.7,0,3.8,0,6.3-0.1l0.1,1
			l-3.7,0.9c-0.5,0.1-0.7,0.4-0.7,0.8c0,0.5,0,1.1,0,1.8s0,1.4,0,2.2v12.2c0,5.2-1.3,9.1-4,11.6c-2.6,2.5-6.8,3.7-12.5,3.7
			c-5.6,0-9.7-1.1-12.4-3.4c-2.7-2.2-4-5.7-4-10.5v-13.5c0-0.8,0-1.5,0-2.2s0-1.2,0-1.8c0-0.4-0.3-0.7-0.7-0.8l-3.7-0.9V208.6z"/>
		<path d="M191.1,234.6c0,1,0,1.8,0,2.6c0,0.8,0,1.5,0,2.1c0,0.4,0.4,0.7,1,0.8l3.4,0.8l0.1,1c-2.6,0-5-0.1-7.4-0.1s-4.9,0-7.4,0.1
			l-0.1-1l3.7-0.9c0.5-0.1,0.8-0.4,0.8-0.7c0-0.6,0-1.3,0-2.1c0-0.8,0-1.7,0-2.6v-19.3c0-0.8,0-1.5,0-2.2s0-1.2,0-1.8
			c0-0.4-0.3-0.7-0.7-0.8l-3.7-0.9l-0.1-1c2.6,0.1,5,0.1,7.4,0.1s4.8,0,7.4-0.1l0.1,1l-3.7,0.9c-0.5,0.1-0.7,0.3-0.8,0.7
			c0,0.6,0,1.2,0,1.8c0,0.7,0,1.4,0,2.2V234.6L191.1,234.6z"/>
		<path d="M205.9,242c-2.4,0-4.9,0-7.4,0.1l-0.1-1l3.7-0.9c0.5-0.1,0.8-0.4,0.8-0.7c0-0.6,0-1.3,0-2.1c0-0.8,0-1.7,0-2.6v-19.5
			c0-0.8,0-1.5,0-2.2s0-1.2,0-1.8c0-0.4-0.3-0.7-0.7-0.8l-3.7-0.9l-0.1-1c2.6,0.1,5.1,0.1,7.5,0.1c2,0,3.9,0,5.7-0.1
			s3.7-0.1,5.7-0.1c6.9,0,12.2,1.3,15.6,3.8c3.5,2.5,5.2,6.3,5.2,11.3c0,5.9-1.9,10.4-5.8,13.7c-3.9,3.2-9.3,4.9-16.3,4.9
			c-1.9,0-3.6,0-5.1-0.1C209.4,242,207.7,242,205.9,242z M208.8,239.8c1.2,0.1,2.3,0.2,3.4,0.3c1.1,0,2.2,0.1,3.4,0.1
			c5.2,0,9.2-1.2,12-3.7c2.7-2.5,4.1-6.3,4.1-11.3s-1.3-8.6-3.9-11c-2.6-2.4-6.7-3.6-12.4-3.6c-0.9,0-1.9,0-3,0s-2.3,0.1-3.7,0.2
			L208.8,239.8L208.8,239.8z"/>
		<path d="M248.5,208.7h7.2c4.4,0,9.1,0,14.1-0.1l0.2,0.2l-1.7,7.4l-1.2,0.2l-1.8-5.5h-13.8V224h2.7c2.1,0,4.4,0,6.9,0
			c0.5,0,0.9-0.2,1-0.6l1-3.2h1.6c-0.1,2.2-0.1,3.9-0.1,4.9s0,2.6,0.1,4.9l-1.6,0.1l-1.1-3.3c-0.2-0.4-0.5-0.6-0.9-0.6
			c-2.6,0-4.9,0-7,0h-2.7v8.7c0,1.8,0,3.5,0.1,5.2h14.3l3.6-6.1l1.3-0.2l-0.7,8.3l-0.2,0.2c-5.1,0-9.9-0.1-14.2-0.1h-7.1
			c-2.4,0-4.9,0-7.4,0.1l-0.1-1l3.7-0.9c0.5-0.1,0.8-0.4,0.8-0.7c0-0.6,0-1.3,0-2.1c0-0.8,0-1.7,0-2.6v-19.7c0-0.8,0-1.5,0-2.2
			s0-1.2,0-1.8c0-0.4-0.3-0.7-0.7-0.8l-3.7-0.9l-0.1-1C243.7,208.7,246.2,208.7,248.5,208.7z"/>
		<path d="M294.2,203c-2.1-0.7-4-1-5.7-1c-2.6,0-4.7,0.6-6.3,1.9c-1.6,1.3-2.3,3-2.3,5.3c0,1.3,0.3,2.4,0.8,3.4s1.3,1.8,2.2,2.6
			c0.9,0.7,2,1.4,3.1,2c1.2,0.6,2.4,1.1,3.6,1.7c1.4,0.6,2.7,1.2,4,1.9c1.3,0.7,2.5,1.4,3.5,2.3s1.9,2,2.5,3.2s0.9,2.7,0.9,4.4
			c0,4-1.5,7-4.6,9.1s-7.1,3.1-12,3.1c-3.2,0-6.6-0.5-10.5-1.6l-0.2-0.2l1.5-10.1l1.3-0.2l2.1,8.5c2.1,0.8,4.3,1.2,6.5,1.2
			c3,0,5.3-0.7,6.9-2c1.7-1.3,2.5-3.2,2.5-5.6c0-1.3-0.3-2.4-0.8-3.3c-0.5-1-1.3-1.8-2.2-2.5c-0.9-0.7-1.9-1.3-3.1-1.9
			s-2.3-1.1-3.6-1.7c-1.4-0.6-2.7-1.2-4-1.9c-1.3-0.7-2.5-1.5-3.6-2.4s-1.9-2.1-2.5-3.4s-1-2.9-1-4.7c0-3.6,1.5-6.4,4.5-8.3
			c3-2,6.7-2.9,11.2-2.9c3.1,0,6.4,0.4,9.9,1.1l0.2,0.2l-1.8,9.3l-1.2,0.2L294.2,203z"/>
		<path d="M317.4,242c-2.4,0-5.1,0-8.1,0.1l-0.1-1l4.4-1c0.5-0.1,0.8-0.4,0.8-0.7c0-1.2,0.1-2.8,0.1-4.6V211H304l-2.6,6.3l-1.2,0.2
			l-0.8-8.5l0.2-0.2c4.9,0.1,9.6,0.1,14,0.1h8c4.4,0,9.1,0,14.1-0.1l0.2,0.2l-1.9,8.4l-1.2,0.2l-1.9-6.5h-10.5v23.8
			c0,1.9,0,3.4,0.1,4.6c0,0.4,0.3,0.6,0.8,0.7l4.4,1l0.1,1C322.5,242,319.8,242,317.4,242z"/>
		<path d="M352.2,208.1l13.2,29.1c0.5,1.1,1,1.8,1.4,2.2c0.4,0.4,1,0.7,1.7,0.9l2.8,0.7l0.1,1c-2.6,0-5-0.1-7.2-0.1
			c-2.3,0-4.9,0-8,0.1l-0.1-1l2.8-0.7c0.4-0.1,0.7-0.2,0.8-0.4c0.2-0.1,0.3-0.3,0.3-0.6c0-0.3-0.1-0.7-0.3-1.2
			c-0.2-0.5-0.5-1.2-0.9-2.1l-2.8-6.4h-14.4l-3.1,6.4c-0.4,0.9-0.7,1.6-1,2.1c-0.2,0.5-0.4,0.9-0.4,1.2c0,0.3,0.1,0.5,0.3,0.6
			c0.2,0.1,0.5,0.3,0.8,0.3l2.8,0.6l0.1,1.1c-2.8,0-5.1-0.1-6.9-0.1s-3.8,0-6,0.1l-0.1-1l3-0.7c0.8-0.2,1.3-0.5,1.7-0.9
			c0.4-0.4,0.8-1,1.2-1.9l15.2-29.1L352.2,208.1z M342.7,227.5H355l-5.8-13.1L342.7,227.5z"/>
		<path d="M381.1,234.6c0,1,0,1.8,0,2.6c0,0.8,0,1.5,0,2.1c0,0.5,0.3,0.8,0.8,0.9l3.3,0.8l0.1,1c-2.4,0-4.7-0.1-7.1-0.1
			s-4.9,0-7.4,0.1l-0.1-1l3.7-0.9c0.5-0.1,0.8-0.4,0.8-0.7c0-0.6,0-1.3,0-2.1c0-0.8,0-1.7,0-2.6v-19.4c0-0.8,0-1.5,0-2.2
			s0-1.2,0-1.8c0-0.4-0.3-0.7-0.7-0.8l-3.7-0.9l-0.1-1c2.6,0.1,5.1,0.1,7.5,0.1c0.5,0,1.1,0,1.8,0s1.6-0.1,2.7-0.1s2-0.1,2.7-0.1
			s1.3,0,1.7,0c4.6,0,8,0.7,10.3,2.1s3.4,3.4,3.4,6c0,2.4-0.8,4.3-2.3,5.8c-1.6,1.5-4,2.6-7.2,3.4c1.3,1.5,2.4,3,3.5,4.4
			s2.1,2.7,3,3.9s1.8,2.2,2.5,3.1c0.8,0.9,1.5,1.6,2.1,2.1c0.3,0.3,0.7,0.5,1,0.7s0.7,0.4,1.1,0.5s0.8,0.2,1.2,0.3
			c0.4,0.1,0.9,0.2,1.4,0.3l0.1,1c-1.4,0.1-2.6,0.2-3.6,0.2c-0.8,0-1.5,0-2.1,0s-1.2-0.1-1.7-0.2s-0.9-0.2-1.3-0.4
			c-0.4-0.1-0.8-0.3-1.2-0.6c-0.8-0.5-1.6-1.2-2.4-2.1s-1.6-2-2.5-3.2s-1.7-2.4-2.7-3.7c-0.9-1.3-1.9-2.6-2.9-3.9
			c-0.3-0.4-0.6-0.7-0.8-0.9c-0.2-0.2-0.4-0.4-0.7-0.5c-0.3-0.1-0.5-0.2-0.9-0.3c-0.3,0-0.8-0.1-1.3-0.1H381L381.1,234.6
			L381.1,234.6z M381.1,224.6c1.2,0,2.3,0.1,3.4,0.1c3.4,0,5.9-0.6,7.6-1.8c1.6-1.2,2.4-3,2.4-5.5c0-2.4-0.8-4.2-2.3-5.3
			c-1.5-1.1-3.9-1.7-7.2-1.7c-0.6,0-1.2,0-1.8,0c-0.6,0-1.3,0.1-2.1,0.1V224.6L381.1,224.6z"/>
	</g>
</g>
<g id="partici">
	<path class="st4" d="M359.6,282.6H89.5h-27v42.1v49.4h373.9v-51.2v-40.3H359.6L359.6,282.6z"/>
</g>
<g id="Layer_12">
	<path class="st5" d="M126.9,300.1c2.1-0.4,5.1-0.7,9.1-0.7c4.4,0,7.6,1,9.7,2.9c1.9,1.7,3.2,4.5,3.2,7.8c0,3.4-1,6.1-2.8,8
		c-2.4,2.6-6.1,3.8-10.3,3.8c-1.1,0-2.1-0.1-2.9-0.2V335H127L126.9,300.1L126.9,300.1z M132.8,316.6c0.7,0.2,1.7,0.3,2.9,0.3
		c4.5,0,7.2-2.4,7.2-6.5c0-3.9-2.5-6-6.6-6c-1.7,0-2.8,0.2-3.5,0.3L132.8,316.6L132.8,316.6z"/>
	<path class="st5" d="M158.6,299.6h7v30h15.7v5.4h-22.7V299.6z"/>
	<path class="st5" d="M193.6,325l-3,10H184l11.2-35.4h8.2l11.4,35.4h-6.9l-3.2-10H193.6z M203.6,320.1l-2.8-8.7
		c-0.7-2.2-1.2-4.6-1.8-6.6l0,0c-0.5,2.1-1,4.5-1.7,6.6l-2.7,8.7H203.6z"/>
	<path class="st5" d="M225,305h-10.3v-5.4H242v5.4h-10.4v30H225V305L225,305z"/>
	<path class="st5" d="M255,299.6V335h-7v-35.4H255z"/>
	<path class="st5" d="M267.5,335.5v-35.4h7l8.7,15.2c2.2,3.9,4.2,8,5.7,11.9h0.1c-0.4-4.7-0.6-9.3-0.6-14.7v-12.3h5.7v35.4h-6.3
		l-8.8-15.5c-2.1-3.9-4.4-8.2-6-12.2l-0.1,0.1c0.3,4.6,0.3,9.2,0.3,15.1v12.7L267.5,335.5L267.5,335.5z"/>
	<path class="st5" d="M311.5,299.4v20.8c0,7,2.7,10.2,6.8,10.2c4.4,0,6.9-3.2,6.9-10.2v-20.8h6v20.4c0,11-5.2,15.9-13.2,15.9
		c-7.6,0-12.6-4.6-12.6-15.8v-20.4L311.5,299.4L311.5,299.4z"/>
	<path class="st5" d="M371.9,320.6c-0.2-4.6-0.5-10.1-0.4-14.9h-0.2c-1.2,4.3-2.7,9.1-4.3,13.5l-5.2,15.3h-5.1l-4.8-15.1
		c-1.4-4.5-2.7-9.3-3.6-13.8h-0.1c-0.2,4.6-0.4,10.2-0.6,15.1l-0.8,14.2h-6.1l2.4-35.4h8.6l4.7,14.2c1.3,4.1,2.4,8.3,3.3,12.3h0.2
		c1-3.8,2.2-8.2,3.6-12.3l5-14.2h8.5l2.1,35.4h-6.4L371.9,320.6z"/>
</g>
<g id="Layer_13">
	<g>
		<g>
			<path class="st5" d="M160.8,347.9c1.3-0.2,3-0.4,5.4-0.4c2.6,0,4.5,0.6,5.8,1.6c1.2,1,1.9,2.5,1.9,4.3s-0.6,3.4-1.7,4.4
				c-1.4,1.4-3.6,2.1-6.2,2.1c-0.7,0-1.3,0-1.7-0.1v7.3h-3.5V347.9L160.8,347.9z M164.3,357c0.4,0.1,1,0.1,1.7,0.1
				c2.7,0,4.3-1.3,4.3-3.6c0-2.2-1.5-3.3-4-3.3c-1,0-1.7,0.1-2.1,0.2v6.6L164.3,357L164.3,357z"/>
			<path class="st5" d="M181.7,361.6l-1.7,5.5h-3.7l6.2-19.5h4.5l6.3,19.5h-3.8l-1.8-5.5H181.7z M187.3,358.9l-1.5-4.8
				c-0.4-1.2-0.7-2.5-1-3.6h-0.1c-0.3,1.1-0.6,2.5-0.9,3.6l-1.5,4.8H187.3z"/>
			<path class="st5" d="M199,347.9c1.3-0.2,3.3-0.4,5.4-0.4c2.8,0,4.7,0.5,6,1.6c1.1,0.9,1.7,2.3,1.7,3.9c0,2.5-1.7,4.2-3.5,4.9v0.1
				c1.4,0.5,2.2,1.9,2.7,3.8c0.6,2.4,1.1,4.7,1.5,5.4h-3.7c-0.3-0.6-0.8-2.2-1.3-4.6c-0.6-2.5-1.5-3.4-3.5-3.4h-1.8v8H199V347.9
				L199,347.9z M202.6,356.5h2.1c2.4,0,3.9-1.3,3.9-3.2c0-2.1-1.5-3.1-3.8-3.1c-1.1,0-1.8,0.1-2.2,0.2V356.5z"/>
			<path class="st5" d="M222.3,350.6h-5.5v-3h14.7v3h-5.6v16.5h-3.6L222.3,350.6L222.3,350.6z"/>
			<path class="st5" d="M240.2,347.6v19.5h-3.6v-19.5H240.2z"/>
			<path class="st5" d="M261.1,366.5c-0.8,0.4-2.7,0.9-5,0.9c-6.2,0-10-3.9-10-9.8c0-6.4,4.4-10.3,10.4-10.3c2.3,0,4,0.5,4.7,0.9
				l-0.8,2.8c-0.9-0.4-2.2-0.8-3.8-0.8c-4,0-6.8,2.5-6.8,7.2c0,4.3,2.5,7,6.8,7c1.4,0,2.9-0.3,3.9-0.7L261.1,366.5z"/>
			<path class="st5" d="M270.6,347.6v19.5H267v-19.5H270.6z"/>
			<path class="st5" d="M277.5,347.9c1.3-0.2,3-0.4,5.4-0.4c2.6,0,4.5,0.6,5.8,1.6c1.2,1,1.9,2.5,1.9,4.3s-0.6,3.4-1.7,4.4
				c-1.4,1.4-3.6,2.1-6.2,2.1c-0.7,0-1.3,0-1.7-0.1v7.3h-3.5L277.5,347.9L277.5,347.9z M281.1,357c0.4,0.1,1,0.1,1.7,0.1
				c2.7,0,4.3-1.3,4.3-3.6c0-2.2-1.5-3.3-4-3.3c-1,0-1.7,0.1-2.1,0.2L281.1,357L281.1,357z"/>
			<path class="st5" d="M298.4,361.6l-1.7,5.5H293l6.2-19.5h4.5l6.3,19.5h-3.8l-1.8-5.5H298.4z M304,358.9l-1.5-4.8
				c-0.4-1.2-0.7-2.5-1-3.6h-0.1c-0.3,1.1-0.6,2.5-0.9,3.6l-1.5,4.8H304z"/>
			<path class="st5" d="M315.8,367.1v-19.5h4l5,8.4c1.3,2.2,2.4,4.4,3.3,6.5h0.1c-0.2-2.6-0.3-5.1-0.3-8.1v-6.8h3.3v19.5h-3.7
				l-5.1-8.6c-1.2-2.1-2.5-4.5-3.5-6.7h-0.1c0.1,2.5,0.2,5.1,0.2,8.3v7L315.8,367.1L315.8,367.1z"/>
			<path class="st5" d="M342,350.6h-5.5v-3h14.7v3h-5.6v16.5H342V350.6z"/>
		</g>
	</g>
</g>
<g id="Layer_11">
	<path class="st6" d="M125.1,295.2c2.1-0.4,5.1-0.7,9.1-0.7c4.4,0,7.6,1,9.7,2.9c1.9,1.7,3.2,4.5,3.2,7.8c0,3.4-1,6.1-2.8,8
		c-2.4,2.6-6.1,3.8-10.3,3.8c-1.1,0-2.1-0.1-2.9-0.2v13.3h-5.9L125.1,295.2L125.1,295.2z M131.1,311.7c0.7,0.2,1.7,0.3,2.9,0.3
		c4.5,0,7.2-2.4,7.2-6.5c0-3.9-2.5-6-6.6-6c-1.7,0-2.8,0.2-3.5,0.3L131.1,311.7L131.1,311.7z"/>
	<path class="st6" d="M156.8,294.7h7v30h15.7v5.4h-22.7V294.7z"/>
	<path class="st6" d="M191.8,320l-3,10h-6.6l11.2-35.4h8.2L213,330h-6.9l-3.2-10H191.8z M201.8,315.2l-2.8-8.7
		c-0.7-2.2-1.2-4.6-1.8-6.6h-0.1c-0.5,2.1-1,4.5-1.7,6.6l-2.7,8.7H201.8z"/>
	<path class="st6" d="M223.2,300.1H213v-5.4h27.2v5.4h-10.4v30h-6.6V300.1L223.2,300.1z"/>
	<path class="st6" d="M253.3,294.7v35.4h-7v-35.4H253.3z"/>
	<path class="st6" d="M265.8,330.5v-35.4h7l8.7,15.2c2.2,3.9,4.2,8,5.7,11.9h0.1c-0.4-4.7-0.6-9.3-0.6-14.7v-12.3h5.7v35.4h-6.3
		l-8.8-15.5c-2.1-3.9-4.4-8.2-6-12.2l-0.1,0.1c0.3,4.6,0.3,9.2,0.3,15.1v12.7L265.8,330.5L265.8,330.5z"/>
	<path class="st6" d="M309.7,294.4v20.8c0,7,2.7,10.2,6.8,10.2c4.4,0,6.9-3.2,6.9-10.2v-20.8h6v20.4c0,11-5.2,15.9-13.2,15.9
		c-7.6,0-12.6-4.6-12.6-15.8v-20.4L309.7,294.4L309.7,294.4z"/>
	<path class="st6" d="M370.2,315.6c-0.2-4.6-0.5-10.1-0.4-14.9h-0.2c-1.2,4.3-2.7,9.1-4.3,13.5l-5.2,15.3H355l-4.8-15.1
		c-1.4-4.5-2.7-9.3-3.6-13.8h-0.1c-0.2,4.6-0.4,10.2-0.6,15.1l-0.8,14.2H339l2.4-35.4h8.6l4.7,14.2c1.3,4.1,2.4,8.3,3.3,12.3h0.2
		c1-3.8,2.2-8.2,3.6-12.3l5-14.2h8.5l2.1,35.4H371L370.2,315.6z"/>
	<g>
		<g>
			<path class="st6" d="M160.8,345.5c1.3-0.2,3-0.4,5.4-0.4c2.6,0,4.5,0.6,5.8,1.6c1.2,1,1.9,2.5,1.9,4.3s-0.6,3.4-1.7,4.4
				c-1.4,1.4-3.6,2.1-6.2,2.1c-0.7,0-1.3,0-1.7-0.1v7.3h-3.5V345.5L160.8,345.5z M164.3,354.6c0.4,0.1,1,0.1,1.7,0.1
				c2.7,0,4.3-1.3,4.3-3.6c0-2.2-1.5-3.3-4-3.3c-1,0-1.7,0.1-2.1,0.2v6.6L164.3,354.6L164.3,354.6z"/>
			<path class="st6" d="M181.7,359.2l-1.7,5.5h-3.7l6.2-19.5h4.5l6.3,19.5h-3.8l-1.8-5.5H181.7z M187.3,356.5l-1.5-4.8
				c-0.4-1.2-0.7-2.5-1-3.6h-0.1c-0.3,1.1-0.6,2.5-0.9,3.6l-1.5,4.8H187.3z"/>
			<path class="st6" d="M199,345.5c1.3-0.2,3.3-0.4,5.4-0.4c2.8,0,4.7,0.5,6,1.6c1.1,0.9,1.7,2.3,1.7,3.9c0,2.5-1.7,4.2-3.5,4.9v0.1
				c1.4,0.5,2.2,1.9,2.7,3.8c0.6,2.4,1.1,4.7,1.5,5.4h-3.7c-0.3-0.6-0.8-2.2-1.3-4.6c-0.6-2.5-1.5-3.4-3.5-3.4h-1.8v8H199V345.5
				L199,345.5z M202.6,354.1h2.1c2.4,0,3.9-1.3,3.9-3.2c0-2.1-1.5-3.1-3.8-3.1c-1.1,0-1.8,0.1-2.2,0.2V354.1z"/>
			<path class="st6" d="M222.3,348.2h-5.5v-3h14.7v3h-5.6v16.5h-3.6L222.3,348.2L222.3,348.2z"/>
			<path class="st6" d="M240.2,345.3v19.5h-3.6v-19.5H240.2z"/>
			<path class="st6" d="M261.1,364.2c-0.8,0.4-2.7,0.9-5,0.9c-6.2,0-10-3.9-10-9.8c0-6.4,4.4-10.3,10.4-10.3c2.3,0,4,0.5,4.7,0.9
				l-0.8,2.8c-0.9-0.4-2.2-0.8-3.8-0.8c-4,0-6.8,2.5-6.8,7.2c0,4.3,2.5,7,6.8,7c1.4,0,2.9-0.3,3.9-0.7L261.1,364.2z"/>
			<path class="st6" d="M270.6,345.3v19.5H267v-19.5H270.6z"/>
			<path class="st6" d="M277.5,345.5c1.3-0.2,3-0.4,5.4-0.4c2.6,0,4.5,0.6,5.8,1.6c1.2,1,1.9,2.5,1.9,4.3s-0.6,3.4-1.7,4.4
				c-1.4,1.4-3.6,2.1-6.2,2.1c-0.7,0-1.3,0-1.7-0.1v7.3h-3.5L277.5,345.5L277.5,345.5z M281.1,354.6c0.4,0.1,1,0.1,1.7,0.1
				c2.7,0,4.3-1.3,4.3-3.6c0-2.2-1.5-3.3-4-3.3c-1,0-1.7,0.1-2.1,0.2L281.1,354.6L281.1,354.6z"/>
			<path class="st6" d="M298.4,359.2l-1.7,5.5H293l6.2-19.5h4.5l6.3,19.5h-3.8l-1.8-5.5H298.4z M304,356.5l-1.5-4.8
				c-0.4-1.2-0.7-2.5-1-3.6h-0.1c-0.3,1.1-0.6,2.5-0.9,3.6l-1.5,4.8H304z"/>
			<path class="st6" d="M315.8,364.7v-19.5h4l5,8.4c1.3,2.2,2.4,4.4,3.3,6.5h0.1c-0.2-2.6-0.3-5.1-0.3-8.1v-6.8h3.3v19.5h-3.7
				l-5.1-8.6c-1.2-2.1-2.5-4.5-3.5-6.7h-0.1c0.1,2.5,0.2,5.1,0.2,8.3v7L315.8,364.7L315.8,364.7z"/>
			<path class="st6" d="M342,348.2h-5.5v-3h14.7v3h-5.6v16.5H342V348.2z"/>
		</g>
	</g>
</g>
<g id="Layer_14">
	<rect x="62.5" y="372.5" class="st1" width="374" height="9.1"/>
</g>
<g id="Layer_6" class="st7">
</g>
<g>
	<path class="st8" d="M203.4,76.4h92.9c1.2,0,2.1,0.9,2.1,2.1v93.4c0,1.2-0.9,2.1-2.1,2.1h-92.9c-1.2,0-2.1-0.9-2.1-2.1V78.5
		C201.3,77.3,202.2,76.4,203.4,76.4z"/>
	<path class="st9" d="M312.7,181.2l-43.3-49.6H290c0.4,0,0.8-0.3,0.9-0.8c0-0.4-0.1-0.8-0.6-0.9l-25.9-8.9l27.7-30.7
		c0.3-0.3,0.3-0.8,0-1.1s-0.8-0.4-1.1-0.1l-25.8,17.2l1.1-11.5c0-0.4-0.1-0.8-0.6-0.9c-0.3-0.1-0.8,0-1.1,0.3l-10.2,15.1L244.6,51
		c0-0.4-0.4-0.8-0.9-0.8c-0.4,0-0.8,0.4-0.8,0.9l0.1,59.3l-35.4-29.1c-0.3-0.3-0.8-0.3-1.1,0s-0.3,0.8,0,1.1l30.3,38.3l-46.3,3.2
		c-0.4,0-0.8,0.4-0.8,0.9s0.3,0.8,0.8,0.8l30.9,2.6l-32.3,16.4c-0.3,0.3-0.4,0.8-0.1,1.2c0.1,0.1,0.4,0.3,0.8,0.3l46.3-13l-9,13.8
		c-0.1,0.3-0.1,0.8,0.1,1.1s0.8,0.3,1.1,0.1l17.1-10.9l1.8,32.9c0,0.4,0.4,0.8,0.9,0.8c0.3,0,0.6-0.3,0.8-0.6l8.9-34.7l53.7,47
		c0.1,0.1,0.3,0.1,0.6,0.1c0.1,0,0.4-0.1,0.6-0.3C312.9,182.2,312.9,181.6,312.7,181.2"/>
	<path class="st0" d="M271.6,139.5l-12.8-11.7h8.6c0.4,0,0.8-0.3,0.9-0.8c0-0.3-0.1-0.8-0.6-0.8l-10.6-3.9l8.6-9.1
		c0.3-0.3,0.3-0.8,0-1.1s-0.8-0.3-1.1-0.1l-7.4,5l1.2-4.7c0.1-0.3-0.1-0.8-0.4-0.9s-0.8,0-0.9,0.3l-4.7,6.5l-4.2-25
		c0-0.4-0.4-0.6-0.8-0.6c-0.4,0-0.8,0.4-0.8,0.8l0.8,24.7L233,107.4c-0.3-0.3-0.8-0.1-1.1,0.1c-0.3,0.3-0.3,0.8,0,1.1l11.6,13.7
		l-11.3,1.8c-0.3,0-0.6,0.4-0.6,0.8c0,0.4,0.3,0.8,0.6,0.8l4.8,0.6l-8,3.1c-0.4,0.1-0.6,0.6-0.6,0.9c0,0.3,0.6,0.6,0.9,0.6l0,0
		l15.2-3l-3.8,5.6c-0.1,0.3-0.1,0.8,0,0.9c0.3,0.3,0.6,0.3,0.9,0.1l6.8-4.2l1.2,9.2c0,0.3,0.3,0.6,0.8,0.6c0.3,0,0.8-0.3,0.8-0.6
		l2.3-10.7l16.9,11.8c0.1,0.1,0.3,0.1,0.4,0.1c0.3,0,0.4-0.1,0.6-0.3C271.9,140.3,271.9,139.8,271.6,139.5"/>
</g>
</svg>
