<?xml version="1.0" encoding="utf-8"?>
<!-- Generator: Adobe Illustrator 25.2.3, SVG Export Plug-In . SVG Version: 6.00 Build 0)  -->
<svg version="1.1" id="logo" xmlns="http://www.w3.org/2000/svg" xmlns:xlink="http://www.w3.org/1999/xlink" x="0px" y="0px"
	 viewBox="0 0 364.9 91.7" style="enable-background:new 0 0 364.9 91.7;" xml:space="preserve">
<style type="text/css">
	.st0{fill:#7AC143;}
	.st1{fill:#FFDA4F;}
	.st2{fill:#3B6E8F;}
</style>
<g id="graphical-elements">
	<path class="st0" d="M32.4,30.3l-1,2.1c-1.8-0.2-3.6-0.2-5.4-0.2c-3.1,0.1-5.3,0.1-9.4,1C12.8,34.1,3.2,37.2,1,33.6
		C-4.9,24.4,17.3,22.3,27,23.1c3.3,0.3,6.6,0.8,9.8,1.5c1.2,0.6,2.5,1.1,4.1,1.5l4.3,1.2c3.8,1,3.8,2.5,3.8,3.3c0,1,0,3.5-5,3.5
		c-3.6,0-6.4-1.1-9.9-2.9L32.4,30.3z M177.3,62c6.1,8.4,4.6,16-0.7,21.6c-11.2,11.8-35.7,7.3-39.1,6.6c-0.8-0.1-1.6-0.2-2.5-0.4
		c-10.1-1.8-25-8.2-40.8-22.3c-10-9-21.1-18.4-38.1-27c2.1-1.6,3.7-3.7,4.6-6.2c0.1,0.1,0.2,0.1,0.3,0.2c2.2,6,7.4,9.7,14.2,9.7
		c0.1,0,0.2,0,0.3,0c4.6,3.4,11.7,8.8,14.1,11.2c13.1-4.7,27.9-10.6,44.7-10.1C159.3,46.1,172.1,54.9,177.3,62 M171.5,83.7
		c1.2-1.1,3.6-3.6,3.4-6.7c-0.4-8.4-13.4-17.4-25.3-20.4c-26.9-6.7-43.8,2.8-54.7,5.7c1.9,2.3,4.7,4.8,9,8.4
		c8.9,7.5,21.7,14.7,39.6,16.8c9.3,1.1,17,0.2,21.4-0.7C167.7,86.1,170.1,85,171.5,83.7"/>
	<path class="st1" d="M191.3,77.9l0.1,0c0,0,0,0,0,0c0,0-0.1,0-0.3,0c-1.2-0.1-3,0-4.1,0.1c0.1,0.1,0.2,0.1,0.4,0.2
		c0.8,0.1,2.3-0.1,3.2-0.2C190.8,77.9,191,77.9,191.3,77.9 M190.2,78.7l1.4,0.1C190.9,78.8,191,78.5,190.2,78.7 M191.1,78.3l0.8-0.1
		l-0.8-0.1L191.1,78.3z M264.3,72.8l-0.2-0.3C264.1,72.6,264.2,72.7,264.3,72.8 M222.9,74.5l1.5,0.3C224.1,74.6,224,74.2,222.9,74.5
		 M283,77.2l-0.1,0.2C283.2,77.3,283.1,77.2,283,77.2 M268.6,76.3l-0.2,0l-0.1,0.2L268.6,76.3z M258.4,73.1l0.5,0.1l0,0L258.4,73.1z
		 M288,78.1l-0.6-0.4C287.4,77.9,287.6,78,288,78.1 M268.3,73.8L268.3,73.8L268.3,73.8L268.3,73.8z M195.9,77.4
		c-0.1-0.1-0.2-0.2-0.7-0.2L195.9,77.4z M362.6,74.2l1.1-0.1c-0.7,0-2.3,0.1-1.6-0.4l1.5-0.2c-0.5-0.2,0.1-0.4,0-0.6l-4.6-0.1
		c0.2,0.2,0.9,0.2,0.6,0.4c-1.2,0.3-1-0.2-2.1,0.1l0.5,0.2c-0.1-0.1-0.3-0.1,0-0.1c0.4-0.2,0.6,0,0.6,0.1c-0.4,0.3-1.6,0.2-1.9,0.1
		c-1.5,0.2-0.3,0.6-0.6,0.7c-0.8-0.4-2.5,0.2-3.4,0.1l0.6,0.3c-1.1,0.5-2.2,0.2-2.8,0.1l0.3,0.3c-1.6,0-2.3,0.9-3.6,0l0.2,0.2
		c-0.6,0.1-1.6,0.3-2.3,0.1c0,0.1-0.1,0.2-0.4,0.3c-0.4-0.3-1-0.1-2,0c0.6,0.1,0.5,0.5,1.1,0.6c-1.5,0.5-1.4-0.5-2.6-0.4
		c-0.7,0.3,0.7,0.2,0.9,0.4c-1.9-0.2-4,1.1-5.2,0.2l0.8-0.3c-0.8-0.2-1.2-0.2-1.1-0.1c0.2,0,0.3,0.1,0.4,0.1c-2.3,0.5-3.6-0.7-6-0.5
		c0.2,0.2,0.5,0.2,0.5,0.4c-1.1,0.2-1-0.9-2.8-0.5l0.3,0.2c-0.6,0.1-1-0.2-0.9-0.2c-0.1,0.8-3.7-0.1-4.9,0.9c-0.8-0.5-3.3-0.9-4-0.6
		c-1.1,0.4,0.9,0.5,0.5,1c-0.8,0-1.3-0.5-2.5-0.3c0-0.4,2.5-0.8,0.2-1.1l-0.3,0.2l0.9,0c0.7,0.3-0.4,0.3-0.6,0.4l-2.5-0.2
		c-0.2-0.5,1.3-0.3,1.5-0.4c-2,0-4.4,0.7-6.3,0.3l0.2,0.2c-2.4-0.5-1.4,0.8-3.3,0c-1,0.1,0.3,0.5-1.2,0.5c-0.4,0-0.2-0.2-0.1-0.2
		c-1.8-0.2-0.8,0.4-2.5-0.1l0.3,0.4c-0.1,0-0.2,0-0.2,0c-1.9-0.5-3.9-1.3-5.6-1.2c0,0.1,0.1,0.1,0.2,0.2l0,0l0,0
		c0.3,0.2,1.1,0.3,1.4,0.5c-2.4-0.8-5.7-0.4-7.9-0.8c0.7-0.3-1-0.8,0.4-1c0.3,0.5,1,0.2,1.8,0.3c-1.2-1.1-5.1,0.3-5.5-0.7l-0.3,0.4
		c-0.3-0.1-1.2-0.4-0.6-0.5l-2.4,0.1c0.8,0.3,2.6,1.1,3.2,0.7c0.7,0.4-1,0.2-0.4,0.7c-1.6-0.7-1,0.2-2.7,0c0.8-0.5-1.6-0.8-1.6-1.1
		c-0.6,0.1-1.8-0.2-2.2-0.4c-1-0.1-3.2,0.2-4.8,0c0.6,0.2,1.5,0.5,1.4,0.8c-0.8-0.2-1.6-0.3-1.8,0.1c2.7,0.9,0.9-0.9,3.4-0.3
		c0.6,0.5,1.3,0.6,2.5,0.8c-0.3,0.1-0.4,0.2-0.4,0.3c-0.4,0-0.9,0-1.4-0.1c-1.5-0.3-3.3,0.1-4.9-0.4c-0.8-0.3-0.2-0.9-2.1-1.1
		l1.7-0.2c-1.8,0.2-0.4-0.3-1.9-0.5l0.6,0.3c-0.9,0-1.3,0-1.8-0.3l0.8,0.5c-0.5,0-1.4,0.1-1.4-0.2l-0.2,0.3
		c-0.1-0.1-0.3-0.1-0.9-0.1c0.3,0.1,0.6,0,0.6,0.2c-2.2-0.2-0.5,0.5-1.9,0.4c0.2,0.1-0.2,0.2-0.7,0.3c0.1-0.8-2.7-0.9-3.4-1.4l0,0
		l-1.9-0.3c0.4,0.1,0,0.3-0.6,0.4l0.1,0c-0.6,0.1,0.7,0.8-1.1,0.6l-0.9-0.2c0.2,0,0,0.1-0.1,0.2l-1-0.2c-1.5,0.7-2.8-0.4-4.5,0
		c0.5-0.1,1.3,0,0.9,0.2c-0.3,0.1-0.8,0-1.1-0.1l0.1,0.1L251,73c0.3,0.3,2.1,0.3,1.3,0.6c-0.5,0.4-1.4,0-2,0
		c0.1-0.2,1.2-0.4,0.1-0.5c-0.1,0.1-1.2,0.3-0.7,0.5c-1.1-0.2-2.8-0.3-3.8-0.6c-0.3,0.1,0.2,0.2,0.4,0.2l0.1-0.1
		c0.7,0.1,0.1,0.5,1.5,0.3c0.1,0.7-1.9,0.2-3.1,0.3l1.9,0.4c-3.1,0.9-7.4,0.2-10.5,0.3c0.9-0.3,1.7-0.1,1.6-0.6
		c-2-0.2-1.7-0.1-3.6-0.1l0.2,0c-1,0.3-2.4-0.1-3,0.4c0.5,0.3,1.4-0.3,1.5,0.2l-2.4,0.1c0.8,0.3,2.4-0.1,3.4,0c0.7-0.1-1.3,0-1-0.4
		c2.3-0.1,2.8,0.3,4,0.7c0.2,0.1,0.2,0.2,0.1,0.2c-0.7,0-1.5,0.1-2.2,0.1c-1.4-0.4-3.3-0.5-5.2-0.1l-1.2,0.5c0,0,0,0,0,0
		c-1.1-0.3-0.7-1.1-2.7-1l0.6,0.3c-0.4,0.1-0.7,0.2-0.9,0.2l2.1,0.5c-0.9,0.1-1.8,0.1-2.7,0.1c-0.6-0.1-1.3-0.2-1.8-0.2
		c0.1,0.1,0.7,0.1,0.9,0.2c-2.5,0.3-5.2-0.3-7.1-0.2c-0.8,0.4,1.6,0.1,1.3,0.5c-1-0.1-2.2,0.4-2.5,0c0.3,0.4-1,0.3-1,0.4
		c-0.4,0-0.7,0.1-1.1,0.1c-0.2-0.1-0.5-0.2-1-0.2c0.3,0.2-0.3,0.2-0.8,0.3c0.1,0,0.2,0,0.4,0c-1.4,0.1-2.7,0.2-4.1,0.3
		c-1.4,0-2.8-0.1-4.1-0.1c0.2,0.1,0.2,0.3,0.1,0.4c-0.2,0-0.5,0-0.7,0.1c-0.5-0.2-0.7-0.4-2.3-0.2c-0.5,0.2-0.4,0.3-0.2,0.4
		c-1,0.1-2,0.2-3,0.2c-0.4,0-0.8,0-1.1,0c0,0,0.1,0.1,0.1,0.1c-0.2,0-0.4,0-0.7,0c-0.6,0-1.2,0-1.5-0.2l-0.1,0.3l-0.1,0.2
		c0.5-0.2,2-0.4,2.3-0.2c-0.1,0.4-1.7,0.3-2.3,0.4c2.9-0.1,3,0.6,5.5,0.1l-0.4-0.1c1.5-0.5,3.2,0,4.5-0.1c-0.4,0.1-0.4,0.3-0.3,0.4
		c3-0.6,6-0.5,9.4-1l1.1,0.4l0-0.4c1.5-0.2,0.6,0.3,1.2,0.4c-0.1,0-0.1-0.1-0.2-0.1c2,0.3,1.1-0.4,2.2-0.4c-0.5-0.3-2.1,0-1.7-0.5
		c2,0.3,5-0.2,5.3,0.6c3.6-0.6,8.1-0.3,11.1-0.4c0.4-0.2-0.3-0.1-0.1-0.2c1.2,0.4,4-0.5,4-0.1c0.6-0.1,0.8-0.5,1-0.6
		c0.8,0.2,1.7,0.2,2.7,0.2l0.3,0l0,0c2.4,0,5.2-0.2,7.5,0.2c-1.3-0.3,0.3-0.5-0.3-0.7c1.1,0.7,3.8,0.7,6,0.6c0-0.1,0.2-0.3-0.1-0.4
		l1.3,0.3l-0.2-0.2c2.3-0.2,4.7,0.6,6.2,0.2c-0.9-0.1-0.9-0.2-1-0.4c1.6,0,3.1,0,5,0.2l-0.2-0.1c0.5,0,1.1,0.1,1.6,0.2l0.1-0.3
		c1,0.2,2.2,0,3.4,0.4c0.5-0.4,2.8,0.4,4.1,0.3c0.5,0.1-1.1-0.4,0.3-0.4c0.2,0.8,1.9,0.1,1.9,0.9l1.3-0.2l0.3,0.4
		c1.1-0.7,1.6,0.4,3.2,0.2c-0.1-0.1-0.2-0.1-0.2-0.2c0.5,0.1,1.7,0.2,0.8,0.4c0.8,0,3.7,0.3,2.4-0.1c0.1,0.2-1.1,0-1.6-0.1
		c0.1-0.3,1.3-0.2,1.7-0.5l0.3,0.2l0.2-0.2c1.6,0.5,3.2,0.2,4.3,0.8c0.1-0.1,0.4-0.2,0.9-0.1l0,0.4l1.7,0.1l-0.8-0.7
		c1.9,0,3.1,0.7,4.6,0.9c0.4-0.7,2.9,0.4,4.3-0.2L297,78c2.5,0.3,2.9-0.2,5.3,0.2c-2,0.2-2,0-5,0.5c2.9-0.2,5,0.6,7.8,0.3
		c-0.2-0.2-0.8-0.3-0.2-0.5c0.5,0.4,2.5,0.1,2.1,0.5c0.8-0.1,1-0.5,1.5-0.6l2.8,0.7l-0.1-0.1c4.8-0.8,8.9,0.9,13.7,0.7l-0.1-0.2
		l1.2,0.4c-0.9-0.3,0.4-0.3,0.5-0.5l3.1,0.5c0.1-0.2-0.1-0.7-0.9-0.6c1.2-0.2,2.4,0.3,3.4,0.3l-0.3-0.2l1,0.2l0-0.3
		c1.7,0.1,3.8-0.2,4.4,0.3l-0.2-0.5l1.8,0.4l-1-0.3c2,0,5.1,0.2,5.5,0.2l-0.2-0.2c0.3-0.1,0.6,0,0.9,0l-0.3-0.2
		c3.1,0,3.9-0.7,7.3-0.5c0.9-0.1-0.5-0.1-0.5-0.2c0.5-0.2,1.7-0.1,2,0c-0.3-0.4-1.7-0.2-0.6-0.6c0.8,0.2-0.5-0.4,0.8-0.3l0.6,0.5
		c0.8-0.2,0.1-0.4,1.3-0.5c1.4,0.1-1.6,0.7,0.6,0.6c1.1-0.1,2.2-1.4,4.4-1.3c1.8-0.4-1-0.7,1.5-0.8l-0.5-0.1l-1.1-0.1
		c0.4-0.2,0.1-0.4,1.2-0.4c0.3,0.1,0.8,0.3,1.3,0.3c-1.5-0.2,2.2-0.8,0.1-1l0.8-0.1L362.6,74.2z M283.2,73.7l0.3-0.1
		C283.3,73.6,283.2,73.6,283.2,73.7 M280.9,73.2L280.9,73.2l0.2,0L280.9,73.2z M195.9,76.8c0.4,0.2,0.5-0.1,0.9-0.1
		C196.4,76.7,195.4,76.5,195.9,76.8 M198.2,77l1.1,0.1C198.8,77,198.5,77,198.2,77 M198.2,77l-1.7,0.2
		C197.4,77.2,197.8,77.1,198.2,77 M206.6,76.4c0,0,1-0.2,1.5,0c-0.8-0.3-0.8-0.6-2.2-0.6C206.1,76,208.8,76.1,206.6,76.4 M235,73.4
		c0.3,0,1.2-0.2,0.7-0.2l-1.3,0.1C234.4,73.4,234.8,73.4,235,73.4 M240.7,73.6c-0.5-0.1,0,0.3-1,0.3l0.9,0.2L240.7,73.6z
		 M243.8,72.7l0.7,0.5C244.7,73.2,244.7,72.8,243.8,72.7 M249.6,72.8l-1.9-0.1l0.6,0.2L249.6,72.8z M253.2,72.9L253,73l1.4,0
		L253.2,72.9z M303.6,75c-0.8,0.6-2-0.3-2.4,0.3C301.7,75.2,303.7,75.5,303.6,75 M338.3,75.7l1.9,0.1
		C338.8,75.7,339.8,75.5,338.3,75.7"/>
</g>
<g id="name">
	<path id="of-central-florida" class="st2" d="M199.2,86.7c0,2.2-0.9,3.8-2.7,4.6c-0.7,0.3-1.4,0.4-2.4,0.4c-1.8,0-3-0.4-4-1.4
		c-0.9-0.9-1.4-2.2-1.4-3.6c0-2.1,1-3.7,2.7-4.5c0.7-0.3,1.6-0.5,2.5-0.5C197.2,81.8,199.2,83.7,199.2,86.7 M192,84.2
		c-0.4,0.6-0.6,1.5-0.6,2.6c0,1.7,0.4,2.7,1.1,3.1c0.4,0.2,0.9,0.3,1.5,0.3c1.7,0,2.4-1,2.4-3.5c0-1-0.1-1.7-0.3-2.2
		c-0.2-0.5-0.8-1.2-2.1-1.2C193.1,83.3,192.4,83.6,192,84.2 M202.1,81.9v9.6h2.4v-4.3h3.1v-1.6h-3.1v-2.2h3.9l0.3-1.6H202.1z
		 M223.9,82.5c-0.7-0.5-1.9-0.8-3.1-0.8c-2,0-3.7,0.8-4.7,2.2c-0.6,0.8-0.8,1.8-0.8,3c0,1.4,0.5,2.6,1.5,3.4c1,0.9,2.3,1.3,4,1.3
		c1.4,0,2.4-0.3,3.4-0.9l-1.1-1.2c-0.7,0.5-1.4,0.6-2.1,0.6c-1.1,0-1.9-0.4-2.3-1.1c-0.4-0.5-0.5-1.3-0.5-2.6c0-1.1,0.2-1.9,0.7-2.5
		c0.4-0.5,1.2-0.8,2.1-0.8c0.7,0,1.3,0.2,1.9,0.5L223.9,82.5z M226.7,81.9v9.6h7.1v-1.7h-4.6v-2.6h3.4v-1.6h-3.5v-2.2h4.2l0.3-1.6
		H226.7z M237,81.9v9.6h2.4l-0.1-4.1c0-0.8,0-1.9-0.1-2.7c0.2,0.6,1,2,1.6,3.2l2.1,3.7h2.6v-9.6h-2.3l0.1,3.9c0,0.7,0.1,1.9,0.2,2.6
		c-0.2-0.7-0.7-1.7-1.3-2.7l-2.3-3.9H237z M248.1,81.9v1.6h3v8h2.5v-8h2.9l0.4-1.6H248.1z M263.8,81.9c2.2,0,3.6,1.1,3.6,2.8
		c0,1.4-1.2,2.6-2.7,2.7c0.2,0.2,0.3,0.2,0.5,0.4c0.7,0.7,2.9,3.7,2.9,3.7h-2.9c-0.5-0.6-0.7-0.9-1.1-1.6c-1.2-1.7-1.6-2.2-2-2.4
		c-0.1,0-0.2-0.1-0.4-0.1v4h-2.4v-9.6H263.8z M261.6,86.1h0.8c1.1,0,1.5-0.1,1.8-0.3c0.3-0.2,0.5-0.6,0.5-1c0-0.6-0.3-1-0.9-1.2
		c-0.3-0.1-0.8-0.1-1.4-0.1h-0.9V86.1z M275.7,81.9l3.8,9.7h-2.6l-0.9-2.3h-3.6l-0.9,2.3h-2.6l4-9.7H275.7z M275.5,87.7
		c0,0-0.4-1-0.7-1.9c-0.1-0.4-0.5-1.7-0.5-1.7s-0.4,1.1-0.6,1.9c-0.2,0.7-0.4,1.1-0.6,1.8H275.5z M281.8,81.9v9.6h6.4l0.4-1.6h-4.4
		v-8H281.8z M295.5,81.9v9.6h2.5v-4.3h3.1v-1.6h-3.1v-2.2h3.9l0.3-1.6H295.5z M304.6,81.9v9.6h6.4l0.4-1.6h-4.4v-8H304.6z
		 M323.1,86.7c0,2.2-0.9,3.8-2.7,4.6c-0.7,0.3-1.4,0.4-2.4,0.4c-1.8,0-3-0.4-4-1.4c-0.9-0.9-1.4-2.2-1.4-3.6c0-2.1,1-3.7,2.7-4.5
		c0.7-0.3,1.6-0.5,2.5-0.5C321.1,81.8,323.1,83.7,323.1,86.7 M315.9,84.2c-0.4,0.6-0.6,1.5-0.6,2.6c0,1.7,0.4,2.7,1.1,3.1
		c0.4,0.2,0.9,0.3,1.5,0.3c1.7,0,2.4-1,2.4-3.5c0-1-0.1-1.7-0.3-2.2c-0.2-0.5-0.8-1.2-2.1-1.2C317,83.3,316.3,83.6,315.9,84.2
		 M330.5,81.9c2.2,0,3.6,1.1,3.6,2.8c0,1.4-1.2,2.6-2.7,2.7c0.2,0.2,0.4,0.2,0.5,0.4c0.7,0.7,2.9,3.7,2.9,3.7h-2.9
		c-0.5-0.6-0.7-0.9-1.1-1.6c-1.2-1.7-1.6-2.2-2-2.4c-0.1,0-0.2-0.1-0.4-0.1v4H326v-9.6H330.5z M328.4,86.1h0.8
		c1.1,0,1.5-0.1,1.8-0.3c0.3-0.2,0.5-0.6,0.5-1c0-0.6-0.3-1-0.9-1.2c-0.3-0.1-0.8-0.1-1.4-0.1h-0.9V86.1z M340.1,81.9h-2.6v9.6h2.6
		V81.9z M346.4,81.9c0.7,0,1.6,0,2.1,0.1c1,0.1,1.9,0.4,2.7,1c1.1,0.9,1.7,2.1,1.7,3.8c0,1.3-0.4,2.5-1.2,3.3
		c-0.7,0.8-1.8,1.3-3,1.4c-0.5,0-1,0.1-1.7,0.1h-3v-9.6H346.4z M346.4,90h1.3c1.6,0,2.3-1,2.3-3c0-1.1-0.1-2.1-0.6-2.7
		c-0.4-0.5-1-0.8-1.9-0.8h-1.1V90z M360.7,81.9l3.8,9.7h-2.6l-0.9-2.3h-3.6l-0.9,2.3h-2.6l4-9.7H360.7z M360.5,87.7
		c0,0-0.4-1-0.7-1.9c-0.1-0.4-0.5-1.7-0.5-1.7s-0.3,1.1-0.6,1.9c-0.2,0.7-0.4,1.1-0.6,1.8H360.5z"/>
	<path id="second-harvest" class="st2" d="M55.4,10.9c-3.5-2.1-6.2-3-9.1-3c-3.2,0-5.5,1.9-5.5,4.5c0,2,1.1,3,4.3,3.9l4.7,1.3
		c6.4,1.7,9.9,5.9,9.9,11.6c0,7.9-6.4,13.2-16.1,13.2c-4.4,0-9.4-1.3-13.3-3.5l2.9-6.1c3.7,1.9,6.8,3.1,10.7,3.1
		c4.5,0,6.9-1.9,6.9-5.3c0-2.5-1.6-4.1-5.1-5.1l-4.3-1.2c-3.9-1.1-6.3-2.6-7.7-4.9c-1.1-1.7-1.6-3.8-1.6-6c0-7.1,5.7-12.1,14-12.1
		c4.8,0,9.6,1.5,13,3.9L55.4,10.9z M83.2,33.9c-2.3,1.9-4.7,2.9-7.3,2.9c-3.9,0-6.1-2.5-6.1-7v-0.2h16.6v-1.7c0-6-1.2-9.9-3.8-12.6
		c-1.9-1.9-5-3-8.3-3c-3.8,0-6.7,1.2-9.1,3.9c-2.5,2.8-3.6,6.2-3.6,11.4c0,9.1,5.3,14.9,13.6,14.9c4,0,7.5-1.3,10.9-4L83.2,33.9z
		 M69.9,24.1V24c0-4,1.6-6.2,4.5-6.2c1.5,0,2.6,0.6,3.3,1.7c0.7,1.1,0.9,2.2,0.9,4.3v0.3H69.9z M109.9,15.3c-1.2-1.1-1.7-1.5-2.8-2
		c-1.6-0.8-3.7-1.3-5.6-1.3c-2.4,0-5.2,0.8-7.1,2.1c-3.4,2.3-5.9,6.7-5.9,13.3c0,9.3,4.6,14.8,12.5,14.8c2.8,0,5-0.6,7-1.8
		c1-0.6,1.5-1,2.6-2.1l-3.4-4.6l-0.5,0.4c-1.9,1.6-3.4,2.4-5.2,2.4c-1.3,0-2.6-0.6-3.4-1.6c-1-1.2-1.5-3.5-1.5-7.3
		c0-6.7,1.5-9.7,4.9-9.7c1.4,0,3,0.8,4.6,2.2L109.9,15.3z M132.3,16.6c-2.5-2.9-5.7-4.3-9.8-4.3c-7.8,0-12.9,6-12.9,15.1
		s5.1,14.9,12.9,14.9c4.4,0,7.3-1.5,9.5-4c2.5-2.8,3.6-6.2,3.6-11.1C135.6,22.4,134.6,19.3,132.3,16.6 M118.8,20.8
		c0.6-1.8,2.1-2.9,3.9-2.9c1.3,0,2.5,0.6,3.3,1.5c1,1.3,1.5,3.8,1.5,7.7c0,6.8-1.4,9.7-4.7,9.7c-1.5,0-3.1-0.8-3.8-2.4
		c-0.6-1.5-1-3.9-1-7.3C118,24.3,118.3,22.3,118.8,20.8 M137,14c0.7,1.9,1,4.3,1,6.8v20.9h7.5V21.3c1.7-1.6,3.7-2.6,5.2-2.6
		c2,0,2.5,1,2.5,4.2v18.7h7.4v-21c0-1.8-0.2-3-0.6-4.1c-0.9-2.5-3.7-4.2-6.9-4.2c-1.7,0-3.7,0.5-5.2,1.2c-1.2,0.7-2.2,1.4-3.3,2.1
		c0-1.2-0.4-2.4-1.1-3.6L137,14z M187.8,1.2L180.3,0v9.9c0,1.7,0.1,3.7,0.2,4.3c-1.4-1.1-3-1.6-5.1-1.6c-7.3,0-12.3,6.2-12.3,15.2
		c0,8.9,4.6,14.6,11.9,14.6c2.6,0,4.8-0.8,6.6-2.4c0.1,0.8,0.2,1.2,0.4,1.7h6.7c-0.5-1.1-1.1-3.4-1.1-10.5V1.2z M176.3,18.6
		c1.3,0,2.7,0.6,4.1,1.9v13.7c-0.7,0.9-2.3,1.9-3.7,1.9c-3.9,0-5.2-2-5.2-8.2C171.5,21.4,173,18.6,176.3,18.6 M199.4,2.5v39.1h7.8
		V24.2h11.2v17.4h8V2.5h-8v15.2h-11.2V2.5H199.4z M234.2,13.9c-2,0.8-3.1,1.4-4.7,2.4l3.2,5.4c3.1-2.1,5.9-3.3,8.3-3.3
		c2.8,0,3.4,1.1,3.4,4.3v1.2c-0.6-0.1-1.1-0.1-1.7-0.1c-9.2,0-13.8,3.1-13.8,9.9c0,5.7,3.5,9,9.9,9c2.4,0,4.4-0.6,5.8-1.6
		c0.6-0.4,1.2-1,1.7-1.5c0.7,1.5,2.3,2.8,4,3.5l4-4.6c-2.2-1.6-2.7-2.8-2.7-5.9v-0.5l0.2-9.7c0.1-3.1-0.1-4-0.5-5.2
		c-1.1-3.2-4.4-5-9.3-5C239.4,12.2,237,12.7,234.2,13.9 M244.3,29l-0.1,6.2c-1.1,1.2-2.5,2-3.9,2c-1.9,0-3.3-1.5-3.3-3.8
		c0-3.4,1.8-4.4,7-4.4H244.3z M254.3,13.9c0.6,1.6,1.1,4.6,1.1,8.4v19.2h7.5V21.3c1.4-1.6,2.9-2.4,4.6-2.4c0.8,0,1.5,0.2,2.2,0.6
		l2.1-6.6c-1.2-0.5-1.7-0.6-2.8-0.6c-0.8,0-1.9,0.2-2.5,0.4c-1.4,0.6-3.2,2.2-4.3,3.7c-0.1-1.6-0.5-2.9-1.2-4.1L254.3,13.9z
		 M272.8,13.3l10.5,28.3h6.2L300,12.8h-7.9l-3.9,12.1c-0.9,2.9-1.5,5.6-1.7,7.3c-0.4-1.9-1.2-5-1.9-6.9l-4.2-13L272.8,13.3z
		 M319.9,33.9c-2.3,1.9-4.7,2.9-7.3,2.9c-3.9,0-6.1-2.5-6.1-7v-0.2h16.7v-1.7c0-6-1.2-9.9-3.8-12.6c-1.9-1.9-5-3-8.3-3
		c-3.8,0-6.7,1.2-9.1,3.9c-2.5,2.8-3.6,6.2-3.6,11.4c0,9.1,5.3,14.9,13.6,14.9c4,0,7.5-1.3,10.9-4L319.9,33.9z M306.6,24.1V24
		c0-4,1.6-6.2,4.5-6.2c1.5,0,2.6,0.6,3.3,1.7c0.7,1.1,0.9,2.2,0.9,4.3v0.3H306.6z M346.2,14.7c-2.6-1.3-5.7-2.7-10.3-2.7
		c-6.7,0-11.1,3.8-11.1,9.4c0,1.9,0.6,3.9,1.6,5.2c1,1.2,3.4,2.6,5.3,2.9l3.4,0.6c3,0.6,4.4,1.6,4.4,3.5c0,1.9-1.7,3.3-3.8,3.3
		c-3.3,0-7.3-1.9-9.6-3.3l-2.7,5.5c4.2,2.2,8.1,3.3,11.6,3.3c7.4,0,12.3-4.1,12.3-10c0-1.9-0.5-3.5-1.6-4.9c-1-1.3-2.2-2.4-5.7-3.3
		l-3.5-0.9c-2.6-0.7-3.6-1.5-3.6-2.9c0-1.7,1.5-2.8,3.7-2.8c2.1,0,4.2,0.6,7.1,2.1L346.2,14.7z M364.5,12.8h-6.7
		c0-2.9,0.2-6.1,0.5-8.7L350.5,6c-0.3,2.1-0.3,4-0.3,6.8h-2.9V18h2.9v15.6c0,2.6,0.1,3.2,0.5,4.4c0.9,2.5,3.9,4.2,7.8,4.2
		c2,0,3.9-0.4,6.1-1.3l-1-4.5c-1.4,0.4-2,0.6-2.7,0.6c-2.6,0-3.3-1-3.3-4.6V18h4.8L364.5,12.8z"/>
	<path id="food-bank" class="st0" d="M202.4,49l-0.6,3.3h-8.6v4.6h6.9v3.3h-6.9v8.9h-5.4V49H202.4z M225.5,59
		c0-6.3-4.4-10.2-11.6-10.2c-2,0-4,0.3-5.6,1c-3.9,1.6-6.1,5.1-6.1,9.4c0,3,1,5.5,3.1,7.5c2.1,2,4.7,2.8,8.8,2.8
		c2.3,0,3.8-0.3,5.4-0.9C223.4,66.9,225.5,63.5,225.5,59 M209.6,53.6c0.8-1.1,2.4-1.8,4.2-1.8c2.9,0,4.3,1.5,4.7,2.5
		c0.5,1.1,0.7,2.6,0.7,4.7c0,5.1-1.6,7.3-5.4,7.3c-1.3,0-2.4-0.2-3.2-0.7c-1.6-0.9-2.4-3-2.4-6.5C208.3,56.7,208.7,54.9,209.6,53.6
		 M250.3,59c0-6.3-4.4-10.2-11.6-10.2c-2,0-4,0.3-5.6,1c-3.9,1.6-6.1,5.1-6.1,9.4c0,3,1,5.5,3.1,7.5c2.1,2,4.7,2.8,8.8,2.8
		c2.3,0,3.8-0.3,5.4-0.9C248.2,66.9,250.3,63.5,250.3,59 M234.4,53.6c0.8-1.1,2.4-1.8,4.2-1.8c2.9,0,4.3,1.5,4.7,2.5
		c0.5,1.1,0.7,2.6,0.7,4.7c0,5.1-1.6,7.3-5.4,7.3c-1.3,0-2.4-0.2-3.2-0.7c-1.6-0.9-2.4-3-2.4-6.5C233,56.7,233.4,54.9,234.4,53.6
		 M252.1,49v20.1h6.6c1.6,0,2.9-0.1,3.9-0.1c2.5-0.1,4.9-1.2,6.6-2.9c1.8-1.8,2.7-4.2,2.7-7c0-3.6-1.2-6.2-3.7-8
		c-1.6-1.2-3.6-1.9-5.9-2c-1.1-0.1-3.1-0.1-4.7-0.1H252.1z M257.7,52.2h2.5c2.1,0,3.4,0.6,4.3,1.7c1.1,1.3,1.4,3.3,1.4,5.6
		c0,4.3-1.6,6.3-5.2,6.3h-2.9V52.2z M289,49c3.3,0,5,0.4,6.6,1.4c1.5,1,2.2,2.1,2.2,3.6c0,1.4-0.6,2.5-1.8,3.4
		c-0.8,0.5-1.2,0.8-2.5,1c3.3,0.7,5.4,2.4,5.4,5.1c0,2.8-2.3,5.4-7.1,5.6c-0.9,0-2,0.1-3.5,0.1h-8.5V49H289z M285.3,57.1h3.2
		c1.3,0,1.9-0.1,2.3-0.3c0.7-0.3,1.4-1.2,1.4-2.1c0-0.8-0.6-1.7-1.6-2c-0.5-0.1-1-0.3-2.3-0.3h-3.1V57.1z M285.4,65.8h3.5
		c1.1,0,1.9-0.1,2.5-0.5c0.8-0.5,1.4-1.4,1.4-2.3c0-1.2-0.8-2.2-2-2.5c-0.7-0.1-1.1-0.2-2.1-0.2h-3.4V65.8z M313.1,49l8.5,20.2h-5.8
		l-1.9-4.8H306l-1.9,4.8h-5.7l8.9-20.2H313.1z M312.6,61c0,0-0.9-2.1-1.5-4.1c-0.3-0.9-1.1-3.6-1.1-3.6s-0.8,2.4-1.3,3.9
		c-0.5,1.4-0.9,2.4-1.4,3.7H312.6z M322.8,49v20.1h5.2l-0.2-8.6c0-1.7-0.1-4.1-0.3-5.7c0.5,1.2,2.1,4.1,3.7,6.6l4.6,7.7h5.7V49h-5.2
		l0.1,8.2c0,1.4,0.2,4,0.4,5.5c-0.5-1.4-1.6-3.6-3-5.7l-5.2-8H322.8z M344,49v20.1h5.6V58.6l8.2,10.5h7.2l-9.6-10.8l8.6-9.3h-6.7
		l-7.7,9.2V49H344z"/>
</g>
</svg>
